<svg width="15" height="25" viewBox="0 0 15 25" fill="none" xmlns="http://www.w3.org/2000/svg">
<path fill-rule="evenodd" clip-rule="evenodd" d="M3.65455 23.6231C3.64389 23.5164 3.78248 23.5164 3.78248 23.5164H4.33687V23.3672H3.66521C3.57992 23.3672 3.39868 23.4418 3.39868 23.6017C3.42 23.8469 3.8891 24.1561 3.8891 24.1561L4.07034 24.0495C4.05968 24.0602 3.68653 23.815 3.65455 23.6231Z" fill="#231F20"/>
<path fill-rule="evenodd" clip-rule="evenodd" d="M13.9957 23.0398L13.388 22.4961L13.1961 22.6027L13.8145 23.0398H9.2515V23.1891H10.7334V23.413H10.0084C10.0084 23.413 10.2323 23.6155 10.2323 23.7754C10.243 23.8714 10.1897 23.914 10.0831 23.914C9.77389 23.914 9.59265 23.3383 9.60331 23.3277L9.37943 23.4343C9.37943 23.4343 9.57133 24.0633 10.1044 24.0633C10.3389 24.0739 10.4882 23.9247 10.4882 23.7648C10.4882 23.6901 10.4349 23.5622 10.4242 23.5516H10.7334V24.1592H10.9999V23.1784H11.5756C11.6076 23.1891 11.6929 23.285 11.6929 23.3596C11.6929 23.5409 11.405 23.5409 11.3197 23.5196C11.3091 23.882 11.8954 24.0953 12.2579 23.9034V24.1699H12.5244V23.1891H13.7611V23.381H13.0895C13.0042 23.381 12.823 23.4556 12.823 23.6155C12.8336 23.8607 13.3027 24.1699 13.3134 24.1699L13.4946 24.0633C13.4733 24.0633 13.1108 23.8181 13.0788 23.6155C13.0682 23.5089 13.2068 23.5196 13.2068 23.5196H13.7611V24.1699H14.0383V23.1891H14.1983V23.0398H13.9957ZM12.2686 23.6795C12.162 23.882 11.7249 23.8714 11.6289 23.6582C11.9487 23.6155 12.0447 23.381 11.8741 23.1891H12.2579V23.6795H12.2686Z" fill="#231F20"/>
<path fill-rule="evenodd" clip-rule="evenodd" d="M7.1619 23.0398H6.91668L6.309 22.4961L6.11709 22.6027L6.73545 23.0398H1.46881V23.1891H2.11914V23.4556C2.11914 23.6368 1.82063 23.4769 1.82063 23.349L1.61807 23.4556C1.61807 23.4556 1.76732 23.6368 1.90592 23.7861C2.11914 24.01 2.31104 24.1699 2.31104 24.1699L2.53493 24.0633C2.52427 24.0633 2.39633 23.9567 2.28972 23.8714C2.20443 23.8074 2.10848 23.6901 2.10848 23.6901C2.27906 23.6901 2.407 23.6155 2.407 23.4876V23.2104H2.85477V23.5409H2.42832L2.56691 23.6795H2.85477V24.1912H3.13196V23.2104H4.52857C4.56056 23.2211 4.64584 23.317 4.64584 23.3916C4.64584 23.5729 4.35799 23.5729 4.2727 23.5516C4.25138 23.914 4.83775 24.1273 5.21089 23.9354V24.2019H5.48808V23.2211H5.99982V23.5622H5.88255C5.88255 23.5622 5.78659 23.5622 5.78659 23.6155C5.78659 23.6688 6.09577 23.914 6.18106 23.914C6.25568 23.914 6.25569 23.8287 6.25569 23.8287V23.7008H6.71411V24.1912H7.00198V23.2104H8.11073V23.7008C8.11073 23.7115 8.01478 23.8394 7.82288 23.8287C7.52437 23.8287 7.5137 23.4663 7.82288 23.4663C7.94015 23.4663 8.00412 23.5089 8.00412 23.5089L7.9828 23.3596C7.69494 23.285 7.33246 23.4023 7.33246 23.6582C7.33246 23.9673 7.81223 24.0633 8.1214 23.914V24.1912H8.39858V23.2104H8.5585V23.0611H7.1619V23.0398ZM5.18958 23.6795C5.08296 23.882 4.64586 23.8714 4.5499 23.6582C4.86974 23.6155 4.95502 23.381 4.80576 23.1891H5.18958V23.6795ZM6.69279 23.5302H6.23436V23.1891H6.69279V23.5302Z" fill="#231F20"/>
<path fill-rule="evenodd" clip-rule="evenodd" d="M9.97655 14.5839V14.1574C10.0832 14.36 10.0405 14.5519 10.1365 14.7544C10.0299 14.7651 9.99787 14.6478 9.97655 14.5839ZM9.742 14.9677C9.32621 14.989 9.53943 14.5199 9.43282 14.2854C9.36885 13.9975 9.47547 13.731 9.49679 13.4431C9.62473 13.5817 9.53944 13.7096 9.60341 13.8589H9.62473C9.742 14.1894 9.742 14.6265 9.742 14.9677ZM7.0767 15.7779C6.91679 15.5114 7.09803 15.2235 6.91679 14.9783C6.95943 14.36 6.78885 13.6883 7.04472 13.1126C7.06604 12.6435 7.0234 12.2064 6.93811 11.8013C6.87414 11.4708 7.18332 11.5774 7.33257 11.4708C7.49249 11.4708 7.66307 11.5561 7.74836 11.652C7.33257 12.9101 8.43067 13.9549 7.81233 15.1276C7.67373 15.4368 7.97224 15.6393 8.01489 15.9272C7.7377 15.9165 7.2153 16.0658 7.0767 15.7779ZM4.96579 15.0103C4.90182 14.8504 5.05108 14.6585 5.09372 14.4986C5.09372 13.9442 5.23232 13.4751 5.23232 12.942C5.36025 12.942 5.25364 13.0806 5.31761 13.1233C5.04042 13.7843 5.9253 14.7864 4.96579 15.0103ZM4.97645 15.7353C4.91248 15.7353 4.86983 15.6073 4.7952 15.65C4.6566 15.714 4.70991 15.8525 4.68859 15.9805C4.58198 15.8952 4.62463 15.7353 4.64595 15.65C4.89116 15.586 5.06174 15.4474 5.0724 15.1809C5.11505 15.1382 5.15769 15.0956 5.211 15.1169C5.2643 15.3408 4.97645 15.4901 4.97645 15.7353ZM4.52867 15.6073C4.4647 15.586 4.50736 15.4794 4.48604 15.4261C4.64595 15.5114 4.77388 15.2449 4.90181 15.2235C4.94446 15.4687 4.63528 15.4474 4.52867 15.6073ZM4.65661 14.957H4.69926C4.78455 15.0423 4.67794 15.0956 4.65661 15.1809V14.957ZM14.1984 3.76279C14.0171 3.53891 13.8465 3.31502 13.9105 3.05915L13.8892 2.97386C13.7293 2.55808 13.3135 2.50477 12.9403 2.4408L12.855 2.41948H12.8337C12.8124 2.41948 12.8124 2.37684 12.8124 2.33419C12.8124 2.27023 12.7911 2.20626 12.7698 2.15295L12.7484 2.13163V2.11031C12.6098 1.90774 12.3966 1.71584 12.1727 1.59857C12.1301 1.57725 12.0874 1.55593 12.0341 1.5346C11.9915 1.51328 11.9488 1.49196 11.9062 1.47064H11.8849H11.8636C11.725 1.42799 11.5757 1.42799 11.4371 1.42799L11.3305 1.44931C11.2239 1.44931 11.1493 1.49196 11.064 1.5346C11 1.55593 10.936 1.59857 10.8827 1.61989L10.8614 1.68386C10.7228 1.92907 10.4456 2.01436 10.1791 2.07832C10.0938 2.12097 9.99786 2.14229 9.91257 2.16361C9.89125 2.14229 9.89126 2.09965 9.86994 2.057C9.84861 1.99303 9.84861 1.92907 9.82729 1.89708L9.742 1.81179C9.58208 1.7265 9.58208 1.58791 9.58208 1.41733C9.58208 1.23609 9.58208 1.06551 9.47547 0.905597L9.45415 0.884274C9.4115 0.820307 9.39018 0.724356 9.36886 0.617744C9.34754 0.479149 9.32621 0.329892 9.18762 0.191297L9.16629 0.169975C8.85711 -0.0112656 8.56926 0.0313791 8.26009 0.0420403C8.13215 0.0420403 7.99357 0.0633626 7.86563 0.0420403C7.70571 -0.0432492 7.55646 0.0207179 7.41786 0.0633626C7.33257 0.084685 7.25794 0.106007 7.17265 0.0633626L7.10869 0.0420403L7.0234 0.0633626C6.98075 0.106007 6.89545 0.084685 6.82082 0.0633626C6.69289 0.0420403 6.55431 0.020718 6.40505 0.0846851C6.22381 -0.000604384 6.07455 0.0846851 5.95728 0.169975C5.87199 0.212619 5.81868 0.276586 5.73339 0.212619L5.62678 0.12733L5.54148 0.233942C5.49884 0.297909 5.38156 0.297909 5.27495 0.297909C5.07239 0.319231 4.84852 0.319231 4.69926 0.543116C4.51802 0.788323 4.57131 1.03353 4.63528 1.27873C4.6566 1.36402 4.67794 1.45998 4.67794 1.54526V1.58791C4.63529 1.65188 4.59265 1.7265 4.55 1.81179C4.48604 1.89708 4.44339 1.97171 4.41141 2.057C4.36876 2.03568 4.3048 2.01436 4.27281 2.01436C4.20884 1.99303 4.13422 1.99303 4.09157 1.95039L4.0276 1.90774L3.9423 1.92907C3.73974 2.01436 3.5905 1.88642 3.4519 1.74783C3.24934 1.56659 3.03611 1.37469 2.67363 1.50262L2.58834 1.58791C2.50305 1.71584 2.36446 1.74783 2.2152 1.76915C2.01264 1.81179 1.79942 1.85444 1.66082 2.09965L1.6395 2.16361C1.61818 2.47279 1.35165 2.63271 1.10644 2.80328C0.903872 2.93122 0.711971 3.02717 0.573376 3.21907L0.530731 3.28304L0.552052 3.34701C0.616019 3.54957 0.466763 3.69882 0.34949 3.85874C0.221555 3.98668 0.125605 4.10395 0.0616381 4.28519C-0.0982797 4.61569 0.0829607 4.81825 0.264201 5.02081C0.349491 5.12742 0.424119 5.20205 0.466764 5.28734L0.488085 5.39395H0.594697C0.733292 5.41528 0.775938 5.53255 0.839905 5.68181C0.903872 5.80974 0.946517 5.94834 1.06379 6.05495L1.12776 6.07627C1.17041 6.11891 1.23437 6.18288 1.26636 6.25751C1.40495 6.41743 1.55421 6.63065 1.86338 6.52404L1.88471 6.50272C1.90603 6.50272 1.92735 6.48139 1.94867 6.46007C1.90603 6.54536 1.86338 6.64131 1.88471 6.76925C1.68214 6.90784 1.70347 7.09974 1.70347 7.30231C1.70347 7.40892 1.70347 7.50487 1.6395 7.56884L1.59685 7.61148L1.61818 7.69677C1.61818 7.80338 1.61818 7.94198 1.61818 8.06991C1.59685 8.37909 1.57553 8.66694 1.77809 8.91215C1.82074 9.11471 1.86338 9.30661 1.93801 9.48785C2.0233 9.66909 2.11925 9.83967 2.28983 9.97826C2.31115 10.1595 2.41777 10.2661 2.53504 10.3727C2.62033 10.458 2.69496 10.5326 2.66297 10.6606L2.64165 10.7458L2.68429 10.8098L2.70562 10.8311C2.79091 10.9377 2.84421 11.0337 2.97215 11.0977C2.95082 11.3855 2.95082 11.652 2.99347 11.9186C3.01479 12.2064 3.10008 12.4943 3.15339 12.8034L3.17471 12.8248C3.33463 13.2192 3.26 13.6244 3.19603 14.0401C3.13206 14.2854 3.08942 14.5519 3.08942 14.7971C3.00413 14.7971 2.95082 14.8184 2.90818 14.8397C2.84421 14.8611 2.80157 14.8824 2.78025 14.925C2.47107 14.925 2.3538 15.1702 2.24719 15.4154C2.18322 15.5434 2.10859 15.6606 2.0233 15.7246L1.95933 15.8099V15.8312L1.93801 15.8739C1.91669 16.0018 1.89537 16.1404 1.95933 16.2683L1.89537 16.311L1.91669 16.3323C1.87404 16.3963 1.8314 16.4602 1.81008 16.4922C1.74611 16.5988 1.68214 16.6735 1.60752 16.6948L1.54355 16.7161L1.52223 16.7587C1.39429 16.9613 1.34099 17.1852 1.29834 17.4197C1.27702 17.6223 1.27702 17.8355 1.2557 18.0381C1.21305 18.0807 1.17041 18.1234 1.12776 18.1767C1.06379 18.262 0.999823 18.3579 0.999823 18.4645V18.5285C1.02115 18.6564 1.06379 18.7311 1.12776 18.8164C1.19173 18.8803 1.23437 18.923 1.28768 18.9763C1.33032 19.2428 1.37297 19.5093 1.4476 19.7759C1.55421 20.0637 1.71413 20.3302 1.95933 20.5541L2.00198 20.5755C2.20454 20.6394 2.39644 20.6607 2.57768 20.6821C2.64165 20.6821 2.7376 20.7034 2.82289 20.7247C2.88686 20.746 2.88686 20.81 2.88686 20.8846C2.88686 21.0232 2.90818 21.1938 3.04678 21.3324L3.15339 21.375C3.15339 21.375 3.19603 21.3964 3.21735 21.439C3.32397 21.5456 3.41992 21.6416 3.5905 21.5669C5.72273 21.5883 7.55645 21.6309 9.59273 21.5456H9.90192C10.1471 21.5243 10.3923 21.5243 10.6162 21.503H10.8401C11.2345 21.503 11.597 21.5243 11.9062 21.2364C12.0661 21.1085 12.0661 20.9273 12.0874 20.7674C12.0874 20.7034 12.0874 20.6288 12.1301 20.5648C12.3113 20.5435 12.5245 20.4795 12.7058 20.4049C12.9084 20.2983 13.1003 20.181 13.2602 19.9784L13.3028 19.8931C13.3028 19.7652 13.3881 19.6479 13.4414 19.52C13.548 19.3814 13.6227 19.2535 13.644 19.0935V19.0083C13.5587 18.8483 13.6653 18.7417 13.7719 18.6351C13.9105 18.4752 14.0811 18.3046 13.8998 17.9528L13.8785 17.9102C13.7186 17.7822 13.6546 17.5583 13.612 17.3558C13.548 17.0466 13.4841 16.7587 13.1855 16.5562C13.1642 16.4176 13.0576 16.3323 12.9617 16.2683L12.8977 16.2257V16.1617L12.919 16.1404C13.1216 15.7886 12.919 15.6287 12.7591 15.4581C12.6951 15.3941 12.6312 15.3301 12.6205 15.2982L12.5992 15.2768C12.4926 14.8291 12.0448 14.8824 11.7143 14.925C11.629 14.8397 11.6077 14.7011 11.5864 14.5732C11.565 14.4879 11.5437 14.392 11.5224 14.2854L11.5011 14.264L11.4798 14.2214C11.1493 13.8269 11.2559 13.4218 11.3731 12.9847C11.4584 12.6542 11.5331 12.3237 11.4798 11.9399C11.4798 11.8333 11.4584 11.7373 11.4584 11.652C11.4158 11.4708 11.3945 11.2789 11.4798 11.2043L11.5224 11.1616V11.0977C11.5011 10.9377 11.6077 10.7885 11.7036 10.6712C11.8102 10.5326 11.9062 10.3834 11.9275 10.2021C12.0341 10.0955 12.0661 9.99959 12.1088 9.89297C12.1514 9.78636 12.1941 9.69041 12.29 9.62644L12.3966 9.56248L12.354 9.45587C12.3113 9.29595 12.4179 9.14669 12.4926 9.0081C12.6205 8.82686 12.7165 8.59231 12.6312 8.30446C12.855 8.1019 12.7911 7.87801 12.7378 7.62214C12.6951 7.49421 12.6525 7.35561 12.7165 7.22768L12.7591 7.12107L12.6738 7.0571C12.5885 6.97181 12.5885 6.87586 12.5885 6.76925C12.5885 6.60933 12.5885 6.43875 12.4499 6.30015H12.4712C12.7591 6.43875 12.887 6.25751 13.0043 6.07627C13.0683 5.99098 13.1322 5.89503 13.1855 5.89503L13.2708 5.87371L13.2922 5.80974C13.4201 5.58585 13.6227 5.31932 13.8465 5.1061C13.8892 5.08478 13.9318 5.04213 13.9745 4.99949C14.0171 4.95684 14.0598 4.93552 14.1024 4.9142L14.1237 4.89288H14.145C14.7527 4.47709 14.4862 4.12527 14.1984 3.76279Z" fill="#231F20"/>
<path fill-rule="evenodd" clip-rule="evenodd" d="M3.8891 21.1198C3.86778 21.1625 3.82513 21.1625 3.78249 21.1625C3.73984 21.1198 3.73984 21.0026 3.76116 20.9599C3.86778 20.9279 3.84645 21.0772 3.8891 21.1198ZM10.0299 9.57381C10.1685 9.94695 9.60349 9.90431 9.78474 10.2881C10.0939 10.3734 10.0939 10.7998 10.4031 10.9277C10.8189 11.7487 10.627 12.7401 10.627 13.6997C10.6909 13.7849 10.6696 13.8809 10.7656 13.9662C10.8935 13.06 10.9468 12.1005 10.8295 11.109C10.9575 11.045 10.9894 11.2369 11.0321 11.3116C11.3199 12.1538 10.9042 12.996 10.9894 13.8169C11.256 14.1261 11.128 14.5952 11.3626 14.9044C11.224 14.9257 11.224 14.7764 11.16 14.7018C11.0961 14.883 11.2453 15.0536 11.3839 15.1709C10.9575 15.1283 11.0321 14.4673 10.7869 14.1474H10.7762C10.8189 14.5419 10.7336 15.1496 11.224 15.3202C11.4692 15.2135 11.3519 15.5014 11.4479 15.5867C11.5332 15.7892 11.8957 15.7893 11.821 16.0771C11.7997 16.0558 11.7784 16.0771 11.7571 16.0984C11.6931 16.0558 11.7357 15.9705 11.6504 15.9385C11.5438 15.8745 11.5225 16.0451 11.4266 16.0025C11.4266 15.7999 11.4479 15.5867 11.2666 15.4481C11.2027 15.6507 11.288 15.9598 11.0641 16.0451C10.8402 15.8426 10.7336 15.672 10.5523 15.4481C10.4137 14.9577 10.2858 14.4779 10.1366 13.9875C9.09176 13.0173 10.1152 11.5248 9.64614 10.3521C9.66746 10.1708 9.80606 10.0429 9.78474 9.84034C10.0513 9.63778 9.92333 9.30728 10.0726 9.08339C10.1152 8.88083 9.9873 8.66761 10.0299 8.52901C9.97664 8.84885 10.4457 9.26463 10.0299 9.57381ZM9.25168 21.0346V21.1198H9.09176V20.9386C9.15573 20.9279 9.29432 20.9066 9.25168 21.0346ZM8.87853 21.1518H8.77192V20.9279H8.87853V21.1518ZM8.60134 21.0346C8.60134 21.0772 8.60134 21.1625 8.51605 21.1625C8.40944 21.2051 8.38812 21.0985 8.35614 21.0346C8.31349 20.864 8.63333 20.864 8.60134 21.0346ZM8.2282 20.9919C8.2282 21.0772 8.20688 21.1518 8.12159 21.1518H8.01498V20.9279C8.10027 20.9279 8.18556 20.9066 8.2282 20.9919ZM7.85506 20.9919C7.85506 21.0772 7.87638 21.1518 7.79109 21.1945C7.72713 21.2158 7.7058 21.1518 7.6525 21.1092C7.58853 20.9706 7.76977 20.8427 7.85506 20.9919ZM7.52456 21.0346C7.54589 21.0985 7.52456 21.1625 7.4606 21.1945C7.322 21.1731 7.322 21.0665 7.322 20.9493C7.40729 20.9493 7.50324 20.8853 7.52456 21.0346ZM7.18341 20.9493C7.16208 20.9919 7.22605 21.1731 7.09812 21.1945C6.95952 21.2584 6.9915 21.0665 6.9382 21.0346C6.89555 20.864 7.09812 20.9279 7.18341 20.9493ZM6.83159 21.0346C6.85291 21.0985 6.83159 21.1625 6.76762 21.1945H6.6077L6.58638 20.9279C6.66101 20.9493 6.87423 20.8427 6.83159 21.0346ZM9.62482 21.1198H9.44358V20.896H9.64614L9.62482 21.1198ZM6.4158 20.9493C6.39448 21.0346 6.43712 21.1518 6.33051 21.1945C6.2239 21.2371 6.17059 21.1092 6.14927 21.0559C6.14927 20.9919 6.10663 20.9173 6.21324 20.896C6.29853 20.8853 6.36249 20.864 6.4158 20.9493ZM5.94671 21.0985V21.2051C5.78679 21.2478 5.78679 21.0665 5.72282 21.0026C5.74415 20.864 6.032 20.864 5.94671 21.0985ZM5.57357 21.1518C5.53092 21.2798 5.44563 21.1518 5.39233 21.1518C5.371 21.0665 5.28571 20.9493 5.41365 20.8853C5.55224 20.9066 5.53092 21.0772 5.57357 21.1518ZM4.73133 21.1518C4.71001 21.1945 4.66737 21.1731 4.62472 21.1945V20.8853C4.68869 20.9279 4.75266 21.0452 4.71001 21.1518H4.73133ZM4.26224 21.2371C4.17695 21.1731 4.12365 21.0559 4.19827 20.9493L4.26224 20.8853C4.26224 21.0132 4.40084 21.1305 4.26224 21.2371ZM11.3946 20.9919L11.3733 21.0346V20.8746C11.4266 20.8427 11.3946 20.9493 11.3946 20.9919ZM10.9575 20.9279C10.9788 20.9919 10.9575 21.0559 10.8935 21.0879C10.8509 21.1092 10.7869 21.0665 10.7869 21.0239C10.7869 20.9386 10.8082 20.8853 10.8722 20.864C10.9148 20.8427 10.9361 20.9066 10.9575 20.9279ZM10.0299 20.9493C10.0513 21.0346 10.0299 21.0879 9.96598 21.1092C9.90201 21.1518 9.88069 21.0879 9.83804 21.0452C9.72077 20.864 10.0513 20.768 10.0299 20.9493ZM5.18976 21.0985C5.21109 21.1412 5.16844 21.2051 5.1258 21.2051C4.96588 21.2691 4.99786 21.0665 4.96588 21.0026L5.02985 20.8746C5.16844 20.8427 5.1258 21.0132 5.18976 21.0985ZM10.4031 20.8853C10.4031 20.9706 10.4457 21.0665 10.3818 21.1092C10.3178 21.1518 10.2752 21.0879 10.2432 21.0452C10.2645 20.9812 10.1792 20.8213 10.3071 20.8213C10.3604 20.832 10.3818 20.864 10.4031 20.8853ZM9.91267 20.7041V20.768H9.64614V20.6614C9.72077 20.6827 9.8487 20.6188 9.91267 20.7041ZM9.49688 20.7041C9.56085 20.8107 9.41159 20.7893 9.33697 20.7893H9.25168V20.6614C9.33697 20.6827 9.44358 20.6188 9.49688 20.7041ZM9.11308 20.7041C9.15572 20.832 8.98515 20.7893 8.93184 20.7893H8.82523V20.6614C8.92118 20.6827 9.04911 20.6188 9.11308 20.7041ZM8.69729 20.7041V20.7893H8.43076C8.34548 20.5974 8.612 20.6614 8.69729 20.7041ZM8.29217 20.7041C8.33481 20.8107 8.18556 20.7893 8.13225 20.7893H8.02564V20.6614C8.12159 20.6827 8.16423 20.7041 8.29217 20.7041ZM7.91903 20.7254C7.91903 20.8533 7.75911 20.768 7.6525 20.7893C7.58853 20.5974 7.87638 20.6401 7.91903 20.7254ZM7.52456 20.7893C7.4606 20.8746 7.36465 20.7893 7.30068 20.768C7.30068 20.5761 7.58853 20.6827 7.52456 20.7893ZM7.20473 20.7254C7.20473 20.768 7.18341 20.8107 7.14076 20.7893C7.05547 20.8107 7.01283 20.7893 6.98084 20.7254C7.01283 20.5974 7.14076 20.7041 7.20473 20.7254ZM6.87423 20.7254C6.89555 20.7893 6.81026 20.8107 6.76762 20.7893H6.66101V20.6614C6.7463 20.6614 6.83159 20.6401 6.87423 20.7254ZM10.6056 20.6614C10.6056 20.7467 10.5204 20.7254 10.4671 20.7254H10.3818V20.6188C10.4457 20.6401 10.5523 20.5974 10.6056 20.6614ZM10.2432 20.6614C10.2432 20.7041 10.2218 20.768 10.1792 20.768C10.1152 20.768 10.0513 20.7467 9.99796 20.7041C10.0513 20.5974 10.1792 20.6188 10.2432 20.6614ZM6.50109 20.768H6.2772C6.23456 20.7254 6.2772 20.6401 6.34117 20.6294C6.4158 20.6188 6.56506 20.6401 6.50109 20.768ZM6.14927 20.768H5.90406L5.94671 20.6294L6.14927 20.6721V20.768ZM5.78679 20.6614C5.80811 20.7254 5.74415 20.7893 5.68018 20.768H5.57357V20.6294L5.78679 20.6614ZM5.41365 20.6614C5.45629 20.7254 5.39233 20.7893 5.30704 20.768C5.22175 20.7893 5.14712 20.7254 5.1791 20.6294C5.26439 20.6401 5.34968 20.5974 5.41365 20.6614ZM4.36885 20.7041C4.28356 20.6827 4.14497 20.7467 4.14497 20.6188H4.36885V20.7041ZM11.16 20.5974C11.16 20.6188 11.16 20.6827 11.1174 20.7041H11.0534V20.5974H11.16ZM10.9361 20.6614C10.8935 20.7467 10.8082 20.7254 10.7336 20.7254C10.6909 20.7041 10.6909 20.6614 10.6909 20.6188C10.7549 20.5761 10.8935 20.5548 10.9361 20.6614ZM4.7953 20.6614C4.85927 20.5015 4.92323 20.6827 5.01918 20.6188C4.99786 20.6614 5.04051 20.6827 5.06183 20.7041C4.9339 20.8427 4.75265 20.5655 4.63538 20.7254C4.55009 20.768 4.50745 20.6827 4.47546 20.6614C4.59274 20.5548 4.6567 20.6614 4.7953 20.6614ZM3.99571 20.6188C3.97439 20.6614 3.93174 20.6614 3.8891 20.6614V20.5974C3.93174 20.5974 3.97439 20.5761 3.99571 20.6188ZM7.60985 20.4588C7.54589 20.4802 7.58853 20.5655 7.52456 20.5441C7.4606 20.5441 7.39663 20.5228 7.36465 20.4588C7.38597 20.3522 7.56721 20.3522 7.58853 20.4588H7.60985ZM7.96167 20.4588C7.91903 20.5228 7.85506 20.5441 7.80175 20.5441C7.75911 20.5015 7.75911 20.4588 7.75911 20.4375C7.81242 20.3736 7.94035 20.3309 7.96167 20.4588ZM8.27085 20.4588C8.2282 20.5015 8.20688 20.5441 8.16424 20.5441C8.07895 20.5015 8.07895 20.3842 8.12159 20.3416C8.27085 20.2776 8.18556 20.4162 8.27085 20.4588ZM7.20473 20.4588C7.16208 20.5015 7.14076 20.5655 7.07679 20.5441C7.05547 20.4588 6.94886 20.3842 7.07679 20.3416C7.11944 20.3522 7.20473 20.3949 7.20473 20.4588ZM8.51605 20.3522C8.53738 20.4375 8.51605 20.4908 8.45209 20.5335C8.32415 20.5122 8.40944 20.3309 8.38812 20.2883C8.45209 20.2776 8.47341 20.3309 8.51605 20.3522ZM9.15572 20.5015C9.1344 20.5015 9.11308 20.5228 9.09176 20.5441C8.98515 20.4588 8.96382 20.3842 8.98515 20.2776C9.1344 20.2563 9.09176 20.4162 9.15572 20.5015ZM6.91688 20.4375C6.85291 20.4588 6.85291 20.5655 6.77828 20.5441C6.69299 20.5015 6.71431 20.4162 6.71431 20.3416C6.78894 20.171 6.89555 20.3309 6.91688 20.4375ZM9.8487 20.3522V20.4588C9.68878 20.5655 9.64614 20.3309 9.58217 20.235C9.71011 20.2136 9.80606 20.2563 9.8487 20.3522ZM9.53953 20.4588C9.43292 20.5228 9.31564 20.5655 9.273 20.3949L9.25168 20.235C9.42225 20.1923 9.49688 20.3309 9.53953 20.4588ZM8.86787 20.3522C8.86787 20.4375 8.84655 20.4908 8.78258 20.5335C8.64399 20.5548 8.67597 20.3736 8.62267 20.2883C8.66531 20.1497 8.80391 20.3096 8.84655 20.3522H8.86787ZM11.4266 20.3522V20.4375C11.2666 20.5015 11.2666 20.2989 11.224 20.2136C11.3733 20.1284 11.3733 20.3096 11.4266 20.3522ZM10.5097 20.3309V20.4588C10.3071 20.5655 10.2858 20.3309 10.1792 20.235C10.2751 20.1497 10.4457 20.2563 10.5097 20.3309ZM10.2005 20.4588C10.0406 20.5868 9.95531 20.3736 9.91267 20.2776L9.95531 20.2136C10.0513 20.2563 10.1579 20.3522 10.2005 20.4588ZM6.58638 20.2136C6.62902 20.2989 6.6077 20.4589 6.50109 20.5015C6.4158 20.5228 6.39448 20.4589 6.37316 20.3949C6.37316 20.2883 6.47977 20.1923 6.58638 20.2136ZM5.47762 20.2136C5.43497 20.2989 5.47762 20.4802 5.3177 20.4588C5.23241 20.3309 5.32836 20.1923 5.47762 20.2136ZM11.821 20.235V20.3416C11.7784 20.3629 11.7571 20.2989 11.7144 20.2776V20.171C11.7784 20.1497 11.8423 20.1923 11.821 20.235ZM11.6185 20.3949C11.5118 20.3949 11.5332 20.2563 11.4905 20.171C11.5971 20.1923 11.6611 20.2883 11.6185 20.3949ZM11.16 20.3949L11.0961 20.4588L10.8722 20.235C10.9575 20.0857 11.1387 20.2883 11.16 20.3949ZM10.8722 20.4375C10.8509 20.5015 10.7656 20.4588 10.7336 20.4588C10.7336 20.3522 10.4884 20.2989 10.6056 20.171C10.6909 20.2563 10.8509 20.2883 10.8722 20.4375ZM6.17059 20.4588C6.12795 20.5228 6.04266 20.5015 5.98935 20.5015C5.90406 20.3736 6.05332 20.2563 6.14927 20.2136L6.23456 20.171C6.36249 20.2563 6.17059 20.3522 6.17059 20.4588ZM5.08315 20.171C5.16844 20.2776 5.06183 20.3522 5.06183 20.4588C4.99786 20.4802 4.97654 20.4162 4.95522 20.3949C4.94456 20.2883 4.96588 20.171 5.08315 20.171ZM4.81662 20.2776C4.83794 20.3416 4.81662 20.4055 4.75265 20.4375C4.71001 20.4375 4.68869 20.3736 4.64604 20.3522C4.66737 20.2883 4.64604 20.2136 4.71001 20.171C4.7953 20.1497 4.85927 20.2136 4.81662 20.2776ZM4.48613 20.4375C4.40084 20.4588 4.37951 20.3949 4.35819 20.3309C4.33687 20.2669 4.35819 20.203 4.42216 20.171H4.48613V20.4375ZM4.19827 20.171C4.26224 20.2563 4.2196 20.3522 4.15563 20.4375C4.07034 20.4802 4.07034 20.3522 4.02769 20.3309C4.081 20.2563 4.10232 20.1923 4.19827 20.171ZM3.8891 20.171C3.93174 20.235 3.8891 20.3949 3.78249 20.4375C3.71852 20.4588 3.6972 20.3949 3.65455 20.3522C3.68654 20.235 3.77183 20.1923 3.8891 20.171ZM3.56926 20.2136C3.56926 20.2776 3.54794 20.3522 3.48397 20.3949C3.42001 20.4162 3.42001 20.3522 3.37736 20.3309C3.37736 20.2563 3.48397 20.0857 3.56926 20.2136ZM3.28141 20.171C3.3667 20.2563 3.26009 20.3309 3.23877 20.3949C3.19612 20.3522 3.15348 20.2883 3.1748 20.235C3.19612 20.2136 3.21744 20.1497 3.28141 20.171ZM3.00422 20.3309H2.89761C2.89761 20.2669 2.91893 20.203 2.96158 20.171H3.00422V20.3309ZM5.94671 20.171C5.88274 20.2989 5.81877 20.4802 5.65886 20.5015C5.53092 20.3096 5.78679 20.0857 5.94671 20.171ZM2.78034 20.171C2.78034 20.235 2.75901 20.2989 2.69505 20.3309C2.6524 20.3522 2.63108 20.2883 2.60976 20.2669C2.64174 20.2136 2.70571 20.0644 2.78034 20.171ZM2.53513 20.235L2.51381 20.2776V20.139C2.55645 20.1497 2.53513 20.1923 2.53513 20.235ZM12.2475 20.1284C12.2475 20.171 12.2475 20.2136 12.2261 20.235L12.0982 20.1284C12.1515 20.0857 12.2368 20.0857 12.2475 20.1284ZM12.482 20.1284C12.5033 20.171 12.482 20.1923 12.4607 20.2136H12.3754V20.075C12.4394 20.0431 12.4607 20.107 12.482 20.1284ZM12.6846 20.0431V20.1284C12.6206 20.1497 12.578 20.107 12.5566 20.0644C12.5353 19.9898 12.6419 19.9898 12.6846 20.0431ZM6.17059 19.9471V20.0111L5.88274 20.0537C5.81877 19.9898 5.86142 19.8938 5.8401 19.8085C5.90406 19.8085 5.97869 19.6806 6.04266 19.7872C6.0853 19.8192 6.0853 19.9258 6.17059 19.9471ZM11.9809 19.9045C11.8957 19.9258 12.0023 19.7232 12.0236 19.6379C12.1089 19.7232 12.0023 19.8192 11.9809 19.9045ZM5.30704 19.7339C5.32836 19.8618 5.32836 20.0217 5.1791 20.0644H5.05117C5.13646 19.8192 5.02985 19.574 4.84861 19.4034C4.99786 19.51 5.18976 19.5526 5.30704 19.7339ZM12.3114 19.9684C12.2688 19.9898 12.2048 20.0111 12.1515 20.0111C12.3328 19.8085 12.0236 19.4993 12.3114 19.3714V19.9684ZM5.8401 19.574C5.77613 19.6166 5.8401 19.7126 5.77613 19.7765C5.75481 19.5953 5.40299 19.4674 5.61621 19.2648C5.76547 19.3074 5.68018 19.5313 5.8401 19.574ZM11.5332 19.7232C11.224 19.6806 11.5545 19.9471 11.288 20.0111C11.2027 19.9898 11.2027 19.8831 11.16 19.8512C11.3199 19.7659 11.0534 19.6699 11.224 19.5846L11.2666 19.2541C11.4479 19.2328 11.6398 19.2755 11.7784 19.2115L11.5332 19.7232ZM10.5523 19.2008C10.595 19.446 10.4671 19.7126 10.3071 19.9045C10.3711 20.0431 10.2432 20.0644 10.1472 20.0857C10.1259 20.0857 10.1259 20.0644 10.0832 20.0644C10.1899 19.8405 10.2858 19.5953 10.3924 19.3607C10.3391 19.2435 10.4244 19.1795 10.5523 19.2008ZM5.39233 19.5313C5.53092 19.574 5.68018 19.7126 5.72282 19.8831C5.7015 19.9898 5.65886 20.1284 5.47762 20.0644C5.52026 19.7339 5.16844 19.4887 4.96588 19.3074C5.02985 19.0836 5.21109 19.3288 5.3177 19.3288C5.41365 19.3927 5.39233 19.4674 5.39233 19.5313ZM12.4607 19.1582C12.5247 19.2648 12.482 19.3821 12.482 19.51C12.3967 19.446 12.418 19.2861 12.418 19.1795V19.1582H12.4607ZM3.97439 19.3288L3.99571 19.3074L4.05968 19.3714C4.2196 19.2435 4.4115 19.4354 4.59274 19.478C4.72067 19.5633 4.85927 19.5846 4.96588 19.7232C5.05117 20.2989 4.34753 19.9684 4.03836 20.0964H3.13215C3.02554 19.9151 2.73769 19.7659 2.70571 19.542C2.99356 19.5207 3.21744 18.9236 3.48397 19.3394H3.97439V19.3288ZM2.35389 19.1049C2.28992 19.3501 2.35389 19.7232 2.28992 20.0111C2.13 19.8085 2.31124 19.5207 2.24728 19.2541C2.20463 19.1582 2.28992 19.1262 2.35389 19.1049ZM2.51381 18.7104C2.57777 18.7957 2.51381 18.913 2.44984 18.9343H2.34323C2.34323 18.913 2.3219 18.8917 2.30058 18.8703C2.37521 18.8383 2.43918 18.7317 2.51381 18.7104ZM7.81242 18.9769L7.79109 19.0196C7.95101 19.2648 7.97233 19.574 8.16424 19.8405C8.07895 19.8618 7.85506 19.7126 7.79109 19.9045H7.72713C7.66316 19.51 7.85506 19.0622 7.7058 18.6678C7.79109 18.7104 7.79109 18.881 7.81242 18.9769ZM7.63118 19.8831C7.54589 19.9045 7.38597 19.7979 7.30068 19.8405C7.48192 19.4887 7.48192 19.0622 7.56721 18.6678C7.48192 19.0622 7.63118 19.4354 7.63118 19.8831ZM7.20473 19.7979V19.8831C7.09812 19.8192 7.02349 19.6806 6.87423 19.7445C7.05547 19.3927 7.24737 19.0409 7.42861 18.6784C7.40729 19.0836 7.21539 19.3714 7.20473 19.7979ZM8.16424 19.0836C8.29217 19.2648 8.38812 19.478 8.5587 19.6379C8.47341 19.6806 8.31349 19.6806 8.29217 19.7979H8.2282C8.12159 19.4034 8.06828 19.0196 7.81242 18.6678L7.85506 18.6038C8.10027 18.7104 7.89771 19.0622 8.16424 19.0836ZM7.322 18.5931C7.14076 18.945 6.92754 19.3074 6.7463 19.6806C6.70365 19.5953 6.6077 19.478 6.50109 19.478C6.72497 19.1902 7.07679 18.9236 7.25803 18.5931H7.322ZM8.2282 18.8383C8.45209 18.9236 8.60134 19.2328 8.78258 19.2648C9.00647 19.4247 8.65465 19.3927 8.65465 19.574C8.47341 19.2435 8.20688 18.8703 7.95101 18.5931L7.99366 18.5079C8.10027 18.6038 8.18556 18.7317 8.2282 18.8383ZM7.20473 18.5505C6.89555 18.7957 6.65035 19.1049 6.42646 19.4141C6.38382 19.2861 6.24522 19.2115 6.11729 19.1049C6.49043 18.9023 6.85291 18.7317 7.20473 18.4865V18.5505ZM5.30704 18.4865C5.30704 18.5292 5.32836 18.5718 5.28571 18.5931C5.30704 18.6145 5.32836 18.6784 5.39233 18.6571C5.41365 18.7211 5.34968 18.7424 5.30704 18.785C5.48828 18.849 5.53092 19.0302 5.55224 19.2008C5.5096 19.1795 5.34968 19.2008 5.34968 19.0942C5.371 19.0516 5.43497 19.0302 5.41365 18.9876C5.34968 18.9023 5.27505 18.9876 5.23241 19.0516L5.09381 18.9236C5.15778 18.9023 5.11514 18.8383 5.13646 18.785C5.09381 18.7424 5.02985 18.7424 4.99786 18.6784L5.13646 18.6145C5.09381 18.5931 5.05117 18.5292 4.99786 18.5505C5.08315 18.5079 5.21109 18.5079 5.30704 18.4865ZM9.15572 19.0196C9.11308 19.1262 8.99581 19.1795 8.99581 19.3074C8.70796 19.0409 8.37746 18.6678 8.08961 18.4439C8.40944 18.7317 8.80391 18.8383 9.15572 19.0196ZM7.14076 18.4226C6.76762 18.5825 6.40514 18.7744 6.05332 19.0196C6.05332 18.8917 6.05332 18.7317 5.91472 18.7104C6.18125 18.6251 6.53307 18.6038 6.82093 18.4865C6.89555 18.4865 7.01283 18.3373 7.14076 18.4226ZM10.3391 18.3373C10.2965 18.4226 10.2112 18.4226 10.1792 18.4439L10.3071 18.316L10.3391 18.3373ZM8.76126 18.5931L8.82523 18.5079L8.95316 18.6464C9.03845 18.5185 9.17705 18.6038 9.28366 18.5825C9.36895 18.6891 9.14506 18.7424 9.21969 18.913C8.86787 18.7104 8.51605 18.4972 8.13225 18.3799V18.316C8.34547 18.3586 8.5587 18.4865 8.76126 18.5931ZM10.563 18.7104L10.7656 18.284H10.7869L10.563 18.7104ZM10.2751 18.6038H10.1899L10.499 18.2733C10.531 18.4226 10.3604 18.5079 10.2751 18.6038ZM9.97664 18.4865C9.87002 18.881 10.531 19.1049 10.1152 19.51C10.1366 19.7126 9.95531 19.8618 9.87002 20.0431C9.6035 20.171 9.37961 20.0857 9.04911 20.0857C9.09176 19.9791 9.07044 19.6699 9.273 19.7765C9.29432 19.5313 9.53953 19.4034 9.6035 19.2008C9.76341 18.913 9.87002 18.5825 9.91267 18.252C10.0726 18.3053 9.8487 18.4012 9.97664 18.4865ZM7.09812 18.2626C6.91688 18.3479 6.68233 18.3479 6.47977 18.3906L5.88274 18.6145C5.90406 18.5079 5.96803 18.3479 5.8401 18.2626C6.2772 18.3373 6.70365 18.22 7.09812 18.2626ZM1.42636 18.6678C1.29843 18.5825 1.34108 18.3373 1.38372 18.22C1.51165 18.3373 1.46901 18.5505 1.42636 18.6678ZM10.2965 18.1774C10.2752 18.22 10.2112 18.284 10.1366 18.2626C10.2005 18.2413 10.2432 18.156 10.2965 18.1774ZM12.3754 18.6464C12.418 19.2008 11.8423 19.4034 11.7784 19.9365C11.7997 19.9791 11.7357 20.0004 11.7144 20.0431H11.5545C11.4905 19.574 12.0876 19.3394 11.9703 18.913C11.789 19.0516 11.5971 19.0942 11.3733 19.0729C11.3306 18.8277 11.5545 18.5825 11.4372 18.316C11.6185 18.1774 11.9276 18.156 12.1195 18.2093C12.2368 18.316 12.2901 18.5079 12.3754 18.6464ZM9.95531 18.156H9.91267V18.0494H9.95531V18.156ZM13.7294 18.2626H13.7081V17.9961C13.8147 18.0388 13.772 18.1774 13.7294 18.2626ZM7.85506 18.0707C7.91903 18.252 7.79109 18.3799 7.6525 18.4226C7.54589 18.3799 7.44994 18.3586 7.36465 18.2626C7.322 18.1027 7.42861 17.9321 7.56721 17.9321C7.71646 17.8469 7.76977 18.0174 7.85506 18.0707ZM1.69289 19.1475C1.69289 18.6784 1.65025 18.2626 1.60761 17.8362C1.73554 18.156 1.82083 18.7317 1.69289 19.1475ZM8.00432 18.0494C8.04696 18.2733 7.94035 18.4759 7.73779 18.5398C7.53523 18.5825 7.34332 18.4972 7.2687 18.3373C7.20473 18.252 7.24737 18.1347 7.24737 18.0068C7.31134 17.8788 7.44994 17.8042 7.57787 17.7616C7.73779 17.7829 7.94035 17.8469 8.00432 18.0494ZM9.31564 17.7296C9.33697 17.8362 9.29432 17.9321 9.33697 18.0601C9.00647 18.0814 8.5587 17.9961 8.2282 18.124V18.1667C8.64399 18.188 8.98515 18.2733 9.37961 18.1667C9.40093 18.2733 9.19837 18.3906 9.31564 18.5185C8.9425 18.3799 8.53738 18.2733 8.12159 18.2307C8.16423 18.1667 8.16423 18.1027 8.07895 18.0707C8.49473 17.9535 8.92118 17.8895 9.31564 17.7296ZM7.07679 18.0707C6.66101 18.0494 6.19192 18.1347 5.81877 18.156C5.88274 18.0281 5.92539 17.8895 5.90406 17.7296C6.2772 17.9108 6.63968 18.0388 7.07679 18.0707ZM11.4479 17.559C11.4905 17.7616 11.16 17.8895 11.3199 18.1134C11.3839 18.5825 10.9468 18.9343 11.0534 19.4674C10.8935 19.6486 11.16 20.1817 10.6803 20.0644C10.7442 19.9578 10.7229 19.7979 10.7229 19.6699C10.7869 19.7126 10.8509 19.7126 10.8828 19.6273L10.6803 19.0942C10.7229 18.8917 10.9042 18.6678 10.7869 18.4759C10.6483 18.6358 10.6803 18.8917 10.499 19.0303C10.4351 18.9236 10.627 18.8277 10.5417 18.6998C10.4351 18.7637 10.4351 18.9236 10.2965 18.8597C10.2112 18.6998 10.499 18.5931 10.563 18.4332C10.6056 18.3266 10.6483 18.2093 10.7229 18.1027C10.563 18.1027 10.7656 17.9641 10.659 17.9215L10.531 18.0068C10.6376 17.7189 10.9788 17.7189 11.192 17.4524C11.3093 17.4631 11.3946 17.4631 11.4479 17.559ZM10.6056 17.3564C10.6483 17.4417 10.5417 17.4844 10.499 17.5164C10.3924 17.495 10.4777 17.4524 10.499 17.4311C10.5523 17.3991 10.563 17.3564 10.6056 17.3564ZM9.25168 17.6656C8.83589 17.7083 8.45209 17.8042 8.07895 17.9535C8.40944 17.7509 8.79324 17.6017 9.10242 17.3351L9.25168 17.6656ZM7.07679 17.9321C6.72497 17.9321 6.37316 17.6443 5.98935 17.6656C5.92539 17.559 6.14927 17.4631 6.09596 17.2925C6.4158 17.495 6.70365 17.7829 7.07679 17.9321ZM13.5481 18.3373C13.5268 18.5825 13.5481 18.8277 13.4415 19.0409L13.3776 17.1965C13.5268 17.5377 13.4842 17.9748 13.5481 18.3373ZM10.5523 17.1539C10.5737 17.2605 10.4884 17.3138 10.4457 17.3564C10.3391 17.3991 10.3391 17.2712 10.3071 17.2285C10.3818 17.2072 10.4671 17.0899 10.5523 17.1539ZM2.18331 17.9321L2.24728 17.8469L2.10868 17.0686C2.21529 17.0686 2.21529 17.2072 2.24728 17.2925L2.31124 17.8895C2.43918 17.8895 2.49248 18.0174 2.53513 18.0707V18.5398C1.91678 18.6678 2.2686 19.4674 2.10868 19.8725H2.08736C2.02339 18.945 2.22595 17.9641 1.92744 17.1219L1.94876 17.0579C2.08736 17.3351 2.10868 17.6443 2.18331 17.9321ZM2.41786 17.3991C2.33257 17.3138 2.28992 17.1539 2.31124 16.9833C2.41786 17.0686 2.43918 17.2498 2.41786 17.3991ZM1.71422 16.9833C2.14066 17.7829 2.02339 18.9343 1.9381 19.7979H1.91678C1.81017 18.817 1.98075 17.9855 1.65025 17.0686C1.62893 17.0259 1.67157 16.9833 1.71422 16.9833ZM8.9425 17.1326L9.0811 17.2392C8.68663 17.3671 8.34547 17.6123 7.99366 17.8362L8.85721 16.9726C8.98515 16.9193 8.86787 17.0899 8.9425 17.1326ZM7.14076 17.8255C6.81026 17.623 6.50109 17.3778 6.17059 17.1859L6.33051 16.962L7.14076 17.8255ZM12.6419 17.6869C12.8019 17.3991 12.6419 17.0473 12.6419 16.7381C13.0577 17.623 13.0151 18.8383 12.8019 19.7979H12.7379C12.7592 19.4247 12.8658 19.1795 12.7805 18.817C12.6739 19.1049 12.6952 19.4354 12.6419 19.7445H12.578C12.514 19.2541 12.7592 18.5931 12.2475 18.188L12.1835 16.994C12.2261 16.994 12.2475 17.0579 12.2901 17.0793C12.3328 17.2818 12.2901 17.5483 12.418 17.7402H12.4607C12.5886 17.3884 12.3328 17.0793 12.418 16.7594C12.6419 16.962 12.514 17.3991 12.6419 17.6869ZM13.2176 17.8469C13.2176 18.4226 13.1963 18.9556 13.111 19.4674C13.0257 19.5313 13.1323 19.6486 13.0044 19.7126C13.0471 18.785 13.0897 17.7189 12.8445 16.8554V16.6954C13.111 16.9833 13.1323 17.4631 13.2176 17.8469ZM11.7784 16.9193H11.9809C11.9383 16.9833 11.853 16.9407 11.821 17.0259C11.7784 17.1645 11.949 17.0899 11.9809 17.1539C12.0876 17.4204 12.0876 17.7083 12.1089 17.9961H11.6931C11.7784 17.9321 11.6931 17.8362 11.6078 17.8362C11.6078 17.7509 11.6504 17.591 11.5865 17.5057C11.4585 17.2178 10.9255 17.527 11.0534 17.0793C11.0961 16.9726 10.8509 16.898 11.0321 16.8127L10.8935 16.6741C11.224 16.6741 11.6611 16.5995 11.7784 16.9193ZM10.5097 16.6954C10.4884 16.7381 10.531 16.8021 10.4671 16.834H10.4457V16.6528C10.4671 16.6528 10.4884 16.6741 10.5097 16.6954ZM8.78258 16.9087C8.47341 17.1539 8.2282 17.4204 7.96167 17.7296H7.89771C8.14291 17.3991 8.32415 17.0259 8.51605 16.6635C8.5587 16.8021 8.73994 16.8234 8.78258 16.9087ZM7.25803 17.7616C7.01283 17.4524 6.70365 17.1432 6.47977 16.834C6.58638 16.834 6.66101 16.7061 6.66101 16.6315C6.89555 17.0046 7.05547 17.3991 7.25803 17.7616ZM5.41365 16.6421C5.41365 16.8447 5.14712 17.0366 5.01918 17.2392C4.83794 17.5057 5.06183 17.8149 4.89125 18.0814C4.56075 17.7509 3.84645 18.3266 3.78249 17.6656C3.6972 17.3351 3.53728 17.0473 3.47331 16.7381C4.10232 16.6528 4.7953 16.6208 5.41365 16.6421ZM3.37736 16.962C3.29207 17.1219 3.5586 17.2072 3.48397 17.3564C3.61191 17.623 3.72918 17.8255 3.66521 18.1134C3.97439 18.4226 4.30488 17.9108 4.59274 18.22C4.73133 18.2626 5.01918 18.3479 5.08315 18.1134C4.94456 17.5803 5.16844 17.1326 5.5096 16.7594H5.57357C5.77613 16.9833 5.34968 17.0899 5.46695 17.2925C5.28571 17.5164 5.46695 17.8895 5.30704 18.1774C5.16844 18.4226 4.85927 18.2626 4.68869 18.4439C4.7953 18.6251 4.71001 18.8703 4.89125 19.0196C4.9339 19.1262 4.80596 19.1795 4.75265 19.2008C4.48613 19.2648 4.19827 19.1155 3.99571 18.9343C3.85712 19.3607 3.56926 18.913 3.33472 18.8703C3.33472 18.8064 3.24943 18.7637 3.19612 18.7104C3.13215 18.913 3.15348 19.1795 2.90827 19.2648C2.76967 19.2435 2.64174 19.3074 2.57777 19.4247C2.41786 19.7979 2.88695 19.7126 2.90827 20.0004C2.74835 20.107 2.5991 19.9578 2.48182 19.8725C2.37521 19.7126 2.41786 19.4567 2.4605 19.2968C2.56711 19.1582 2.97224 19.0942 2.70571 18.8277C2.62042 18.5825 3.07885 18.4012 2.70571 18.2093C2.70571 17.8149 2.86563 17.5483 2.70571 17.1859H2.68438C2.68438 17.3671 2.68438 17.6763 2.52447 17.7829C2.39653 17.7189 2.4605 17.5377 2.48182 17.4524C2.58843 17.1645 2.48182 16.6955 2.90827 16.6315C3.19612 16.5569 3.1748 16.9087 3.37736 16.962ZM9.95531 16.6421C10.0832 16.9513 9.82738 17.1752 9.91267 17.5057C9.64614 17.4631 9.68878 17.1326 9.53953 16.9726L9.273 16.6635C9.44358 16.5569 9.74209 16.5995 9.95531 16.6421ZM10.4031 16.9833C10.563 17.0046 10.6056 16.898 10.6696 16.8021L10.6056 16.5995C10.7869 16.6208 10.6909 16.8874 10.8935 16.9726C10.9575 17.1006 10.7869 17.1965 10.9575 17.2605C10.8935 17.4204 10.8509 17.6123 10.6696 17.6869H10.5097C10.4244 17.7936 10.6163 17.9535 10.4031 18.0174C10.2752 17.9748 10.2218 18.1454 10.1366 18.0601C10.2005 17.9748 10.3604 17.9535 10.4031 17.8575C10.2645 17.7509 10.1366 17.9961 9.97664 17.8575L10.1792 17.7722C10.0406 17.591 9.99796 17.3458 10.0726 17.1326C10.2538 16.9726 9.94465 16.6848 10.2325 16.5355C10.2645 16.6528 10.1579 16.9407 10.4031 16.9833ZM7.14076 16.5355C7.18341 16.9087 7.27936 17.3351 7.42861 17.6869H7.36465C7.20473 17.3351 7.03415 16.9726 6.81026 16.6421C6.91688 16.5995 7.03415 16.5995 7.14076 16.5355ZM2.15133 16.5782C2.15133 16.6208 2.19397 16.6848 2.10868 16.7061H2.04471C1.98075 16.6421 2.06604 16.5995 2.08736 16.5462C2.10868 16.5355 2.13 16.5569 2.15133 16.5782ZM8.38812 16.6528C8.16423 16.9833 7.94035 17.2925 7.81242 17.655C7.85506 17.3245 8.01498 16.898 8.05762 16.4822C8.16424 16.5782 8.27085 16.6528 8.38812 16.6528ZM7.52456 17.6656C7.41795 17.2498 7.322 16.866 7.23671 16.4716L7.52456 16.4929V17.6656ZM2.37521 16.5355C2.37521 16.5782 2.41786 16.6421 2.35389 16.6635H2.31124V16.4822C2.35389 16.4502 2.39653 16.4929 2.37521 16.5355ZM7.91903 16.4929L7.6525 17.6869V16.4289C7.71646 16.5569 7.83374 16.4716 7.91903 16.4929ZM12.7485 16.4716V16.5355C12.6633 16.5569 12.61 16.5142 12.5886 16.4289C12.6206 16.365 12.7059 16.4076 12.7485 16.4716ZM2.57777 16.5995C2.55645 16.4929 2.5991 16.4396 2.68438 16.3756V16.5995H2.57777ZM12.482 16.4929L12.4607 16.5355L12.3221 16.3756L12.3647 16.333C12.4607 16.333 12.4394 16.4502 12.482 16.4929ZM3.00422 16.4289C2.9829 16.4716 2.94025 16.4716 2.89761 16.4716L2.96158 16.333C3.00422 16.3543 3.00422 16.4076 3.00422 16.4289ZM9.273 17.2925C9.60349 17.8042 9.53953 18.6464 9.20903 19.1369C8.79324 19.8405 7.99366 20.0644 7.30068 20.0004C6.94886 19.9151 6.72497 19.7552 6.4158 19.6273C5.90406 19.0942 5.57357 18.3373 5.81877 17.6123C5.92539 17.0366 6.50109 16.5249 7.07679 16.3543C7.94035 16.1411 8.84655 16.5142 9.273 17.2925ZM12.2475 16.4929C12.2261 16.5782 12.1622 16.5355 12.1089 16.5355L11.9703 16.269C12.0876 16.2477 12.1942 16.4076 12.2475 16.4929ZM3.29207 16.269C3.37736 16.3756 3.31339 16.4929 3.22811 16.5782L3.12149 16.5355C3.13215 16.4076 3.19612 16.3116 3.29207 16.269ZM4.05968 16.2264C4.081 16.365 3.99571 16.4502 3.93174 16.5355H3.82513C3.72918 16.365 3.91042 16.2477 4.05968 16.2264ZM3.66521 16.2264C3.68654 16.333 3.66521 16.4929 3.53728 16.5782L3.43067 16.5355C3.44133 16.4076 3.52662 16.2477 3.66521 16.2264ZM11.8637 16.4929C11.6398 16.5782 11.6611 16.3116 11.5332 16.2264C11.5971 16.1411 11.6611 16.269 11.7144 16.269C11.7997 16.333 11.8423 16.4076 11.8637 16.4929ZM11.5332 16.4716C11.4692 16.5995 11.3946 16.4716 11.3306 16.4716C11.288 16.3863 11.192 16.269 11.2027 16.205C11.3306 16.2264 11.4905 16.333 11.5332 16.4716ZM4.4648 16.205C4.50745 16.269 4.44348 16.3863 4.40084 16.4716C4.37951 16.5355 4.26224 16.4716 4.24092 16.5355C4.17695 16.4929 4.19827 16.4289 4.19827 16.3756C4.26224 16.269 4.32621 16.1837 4.4648 16.205ZM11.1174 16.4076V16.4929C10.8935 16.5569 10.9361 16.3116 10.7869 16.205C10.9148 16.1197 11.0641 16.2903 11.1174 16.4076ZM10.7975 16.4289V16.4716C10.595 16.5995 10.5097 16.2477 10.4031 16.1624C10.5843 16.1197 10.7549 16.2903 10.7975 16.4289ZM10.2432 16.3116L10.2858 16.269L10.3498 16.3756C10.3071 16.4396 10.2218 16.3969 10.1899 16.4183L9.9873 16.1731C10.0939 16.1411 10.2005 16.1837 10.2432 16.3116ZM9.18771 16.365V16.4289C8.98515 16.5569 9.02779 16.2264 8.87853 16.1624C9.04911 16.1197 9.1344 16.269 9.18771 16.365ZM4.90191 16.1624C4.90191 16.2477 4.92323 16.4076 4.81662 16.4716C4.77398 16.5355 4.68869 16.4929 4.63538 16.4929C4.48613 16.3116 4.71001 16.1624 4.90191 16.1624ZM9.95531 16.365V16.4289C9.71011 16.5355 9.71011 16.269 9.58217 16.1624C9.71011 16.1197 9.89135 16.2264 9.95531 16.365ZM9.53953 16.333C9.58217 16.4396 9.49688 16.4396 9.43292 16.4716C9.3263 16.365 9.25168 16.269 9.20903 16.1197C9.35829 16.1197 9.45424 16.2264 9.53953 16.333ZM6.31985 16.1624C6.19192 16.2264 6.07464 16.5569 5.8934 16.4289C5.91472 16.301 6.05332 16.1624 6.18125 16.1197C6.21324 16.1411 6.29853 16.0984 6.31985 16.1624ZM5.81877 16.1197C5.71216 16.2477 5.73348 16.4929 5.5096 16.4716C5.44563 16.4289 5.48828 16.3436 5.46695 16.3116C5.53092 16.1624 5.68018 16.0984 5.81877 16.1197ZM5.39233 16.1197C5.371 16.2583 5.28571 16.365 5.23241 16.4716H5.07249C4.97654 16.2903 5.18976 16.0984 5.39233 16.1197ZM9.33697 16.9833C9.71011 17.4737 9.80606 18.1347 9.64614 18.7531C9.50754 19.4354 8.82523 19.9898 8.18556 20.171C7.25803 20.3736 6.34117 20.0431 5.81877 19.2435C5.42431 18.6678 5.40299 17.8255 5.71216 17.1859C6.02134 16.6315 6.63968 16.2157 7.24737 16.0984C8.0363 16.0238 8.84655 16.3116 9.33697 16.9833ZM12.482 16.0878C12.482 16.1091 12.5033 16.1517 12.4607 16.1731L12.418 16.0451C12.4607 16.0238 12.4607 16.0664 12.482 16.0878ZM12.0876 16.0984H12.0236V16.0345H12.0876V16.0984ZM2.47116 16.2264C2.44984 16.2903 2.40719 16.269 2.36455 16.269C2.38587 16.1837 2.34323 16.0878 2.44984 16.0451C2.51381 16.0878 2.44984 16.1624 2.47116 16.2264ZM2.28992 16.0451H2.24728V15.9385H2.28992V16.0451ZM3.1748 15.8319C3.19612 15.9172 3.11083 15.9598 3.13215 16.0345H3.11083V15.8319H3.1748ZM5.28571 15.608C5.01918 15.672 5.41365 16.1197 5.08315 15.9385C5.1258 15.8106 5.10447 15.544 5.28571 15.608ZM9.80606 15.6507C9.80606 15.672 9.80606 15.7146 9.78474 15.7359C9.74209 15.672 9.64614 15.672 9.58217 15.672L9.64614 15.544C9.71011 15.5867 9.76341 15.5654 9.80606 15.6507ZM10.5523 15.7359C10.5737 15.8426 10.5097 15.8959 10.4671 15.9812C10.2858 15.9172 10.4457 15.6507 10.3391 15.5121C10.4244 15.544 10.5523 15.6293 10.5523 15.7359ZM11.9809 15.3841C12.0662 15.4694 11.9809 15.7146 12.0449 15.8319C11.917 15.6507 11.5332 15.5654 11.5971 15.2349C11.7571 15.2242 11.8637 15.3415 11.9809 15.3841ZM3.11083 15.2455C3.27075 15.576 2.80166 15.7999 2.90827 16.1731C2.86562 16.1731 2.8443 16.237 2.78034 16.2157L2.73769 15.9278H2.63108V15.7999L2.83364 15.8426C2.90827 15.6293 2.80166 15.2775 3.11083 15.2455ZM9.02779 15.2455C9.11308 15.3841 8.78258 15.4481 8.98515 15.5547C9.09176 15.4694 9.25168 15.5547 9.25168 15.6826C9.23035 15.7679 9.273 15.8639 9.20903 15.9278C9.12374 15.8212 9.273 15.6826 9.10242 15.5973C9.05977 15.6187 8.97448 15.6187 8.9425 15.6826L8.98515 15.9492C8.82523 15.9278 8.89986 15.704 8.78258 15.6187C8.76126 15.4907 8.84655 15.2882 8.9425 15.2242C8.96382 15.2242 8.98515 15.2562 9.02779 15.2455ZM2.70571 15.1816C2.791 15.4268 2.5991 15.672 2.48182 15.8852C2.41786 15.8852 2.35389 15.8639 2.3219 15.7999C2.52447 15.672 2.58843 15.4054 2.6524 15.1816H2.70571ZM12.2901 15.2775C12.2475 15.4588 12.3541 15.6293 12.514 15.704C12.6206 15.7253 12.7166 15.7679 12.7379 15.8639C12.6739 15.8426 12.6313 15.7573 12.5566 15.7786C12.514 15.8212 12.4714 15.8426 12.4714 15.9065H12.4074C12.1835 15.6826 12.2048 15.3948 12.0129 15.1709C12.0876 15.1816 12.2475 15.2029 12.2901 15.2775ZM10.2005 15.7146V15.8745C10.1366 15.8106 10.1792 15.6933 10.0726 15.672C9.8487 15.7573 10.2538 16.0984 9.94465 15.9172C9.9873 15.608 9.67812 15.4268 9.74209 15.1602C9.91267 15.2988 9.95531 15.6507 10.2005 15.7146ZM10.1152 15.1176V15.2242L9.9873 15.1176C10.0299 15.075 10.0939 15.075 10.1152 15.1176ZM9.44358 15.0536C9.37961 15.0749 9.35829 15.011 9.31564 14.9683V14.883C9.42225 14.8937 9.40093 14.9897 9.44358 15.0536ZM6.54373 15.2455C6.47977 15.3308 6.52241 15.4268 6.50109 15.5121C6.66101 15.5973 6.81026 15.6187 6.87423 15.7999C6.85291 15.8639 6.89555 15.9278 6.83159 15.9385C6.85291 15.8319 6.85291 15.7359 6.7463 15.672L6.54373 15.7786C6.54373 15.7359 6.54373 15.6933 6.50109 15.672C6.4158 15.672 6.43712 15.7573 6.43712 15.7999V15.9278C6.33051 15.8639 6.4158 15.7253 6.33051 15.6187C6.26654 15.5121 6.30919 15.3735 6.20258 15.2882C6.07464 15.3521 6.02134 15.4694 5.97869 15.5973C6.0853 15.64 6.13861 15.7253 6.15993 15.8426C6.09596 15.7999 6.05332 15.5973 5.8934 15.6826C5.76547 15.7466 5.82943 15.8639 5.80811 15.9492C5.68018 15.8106 5.74415 15.5227 5.82943 15.3521C5.87208 15.2882 5.8934 15.2135 5.96803 15.1709C6.05332 15.1283 6.17059 15.2135 6.21324 15.0856C6.21324 14.979 6.23456 14.9044 6.31985 14.8191C6.54373 14.9577 6.21324 15.2242 6.54373 15.2455ZM6.70365 14.2967C6.76762 14.382 6.72497 14.5206 6.7463 14.6272C6.72497 14.5419 6.63969 14.4246 6.66101 14.2967H6.70365ZM4.75265 14.4566C4.66737 14.318 4.75266 14.1474 4.81662 14.0302C4.85927 14.1154 4.77398 14.318 4.75265 14.4566ZM4.32621 14.0941C4.30488 13.5397 4.63538 12.9854 4.57141 12.3457L4.59274 11.6314C4.7953 12.4097 4.67803 13.3692 4.32621 14.0941ZM6.14927 10.8425C6.37316 11.3329 6.14927 11.8873 6.17059 12.463C6.29853 12.8574 6.29853 13.2625 6.50109 13.593V13.7316H6.43712C6.4158 13.9982 6.57572 14.3073 6.47977 14.6165L6.31985 14.286C6.21324 14.3926 6.2772 14.5526 6.21324 14.6805C6.0853 14.6165 6.12795 14.3926 6.01068 14.3073C5.96803 14.6805 5.98935 15.043 5.72282 15.3095L5.58423 15.9705H5.45629C5.39233 15.8852 5.47762 15.7679 5.58423 15.7679C5.47762 15.608 5.69084 15.3735 5.40299 15.3415C5.46695 15.0749 5.82944 15.075 5.85076 14.7445C5.82944 14.6592 5.87208 14.5632 5.82943 14.4779C5.74415 14.6165 5.7015 14.7871 5.62687 14.9044C5.58423 14.9257 5.52026 15.011 5.48828 14.947C5.40299 14.9044 5.5096 14.7658 5.59489 14.7445V12.7295C5.371 12.1111 5.22175 11.3329 5.32836 10.5973C5.63753 10.6612 5.90406 10.576 6.14927 10.8425ZM9.15572 10.4907C9.42225 11.802 8.45209 13.1453 9.21969 14.3713C9.19837 14.6378 9.21969 14.7871 9.11308 15.011C9.21969 15.1922 9.48622 15.0963 9.50754 15.3415C9.52887 15.4801 9.50754 15.608 9.42225 15.7146C9.33697 15.576 9.28366 15.1176 8.95316 15.0749C8.95316 14.6059 8.7506 14.1901 8.62267 13.7636L8.51605 13.8702C8.58002 14.318 8.76126 14.8191 8.60134 15.2882C8.66531 15.5334 8.76126 15.704 8.62267 15.9492C8.51605 15.8852 8.70796 15.5973 8.46275 15.6187C8.32415 15.704 8.46275 15.9492 8.35614 15.9918C8.2282 15.7253 8.48407 15.5227 8.39878 15.2882C8.46275 15.3095 8.50539 15.3948 8.5587 15.2882C8.27085 14.4459 8.69729 13.8063 8.5587 13.0493C8.39878 13.1133 8.49473 13.3798 8.43076 13.4971C8.24952 14.0302 8.32415 14.6911 8.12159 15.2242C8.12159 15.1602 8.14291 14.979 8.2282 14.8937C8.00432 14.1794 8.35614 13.5397 8.43076 12.8574L8.38812 11.0877C8.34548 10.9811 8.30283 10.9064 8.32415 10.7785C8.71862 10.8638 8.86787 9.95761 9.15572 10.4907ZM4.57141 10.2135C5.01918 10.5227 4.48613 10.9917 4.75265 11.3862H4.89125C4.99786 11.1196 4.78464 10.7039 5.05117 10.5227C5.15778 10.9491 5.09381 11.4715 5.11514 11.9619H5.05117C4.91257 11.802 5.07249 11.3649 4.78464 11.4288C4.82728 12.1644 5.3177 13.1559 4.69935 13.8276C4.74199 13.9555 4.6567 14.0302 4.63538 14.1368C4.55009 14.1154 4.67803 13.9555 4.55009 13.9768C4.28356 14.4886 4.39017 15.1496 3.95307 15.5973C3.91042 15.64 3.97439 15.6826 4.01703 15.7253C4.03836 15.6826 4.081 15.6826 4.12365 15.6826C4.05968 16.0131 3.63323 15.7253 3.52662 16.0558L3.28141 16.1197L3.26009 15.4054C3.46265 15.4054 3.81447 15.5654 3.96373 15.2455C4.02769 15.1069 4.10232 14.9364 4.02769 14.7764C3.89976 14.8617 3.98505 15.0216 3.82513 15.043L3.78249 14.6485C3.67588 14.7764 3.73984 14.9577 3.64389 15.0749H3.5586C3.57992 14.8297 3.68654 14.6059 3.60125 14.3713L3.53728 14.4353C3.57992 13.4651 3.98505 12.4843 3.6972 11.4821C3.65455 11.4821 3.61191 11.4821 3.59059 11.4395C3.65455 11.7273 3.59059 12.367 3.54794 12.8148C3.40935 12.2391 3.1748 11.5994 3.3667 10.9704C3.52662 11.077 3.43067 11.3649 3.65455 11.4395C3.78249 11.2369 3.3667 10.7039 3.87844 10.7785C3.96373 10.4267 4.36885 10.3841 4.4115 10.0429L4.45414 9.86166C4.67803 9.90431 4.44348 10.0642 4.57141 10.2135ZM8.07895 11.013C8.20688 11.6314 8.30283 12.3457 8.12159 12.9427C7.87638 12.4523 7.91903 11.7913 7.81242 11.2156C7.76977 11.0344 8.00432 11.0663 8.07895 11.013ZM7.89771 10.8211C7.87638 10.8851 7.81242 10.8425 7.75911 10.8425C7.75911 10.7785 7.85506 10.7678 7.89771 10.8211ZM6.81026 10.9491C6.85291 11.1303 6.70365 11.2369 6.70365 11.3755C6.78894 12.0365 6.84225 12.7295 6.63968 13.3692C6.53307 12.7082 6.43712 11.9725 6.33051 11.2902C6.4158 11.109 6.28787 10.7572 6.57572 10.7785L6.81026 10.9491ZM10.7336 10.7678V10.8318L10.627 10.7892C10.627 10.7465 10.7123 10.6825 10.7336 10.7678ZM9.53953 11.3222C9.47556 11.9832 9.41159 12.7188 9.20903 13.3798C9.07044 12.399 9.45424 11.5354 9.41159 10.6079C9.60349 10.7785 9.45424 11.0557 9.53953 11.3222ZM7.30068 10.9491L7.25803 10.9917C7.07679 10.9277 7.21539 10.7039 7.25803 10.5973L7.30068 10.512C7.52456 10.5973 7.38597 10.8211 7.30068 10.9491ZM8.49473 10.3947C8.51605 10.5013 8.45209 10.5013 8.38812 10.5227H8.34547C8.26019 10.4587 8.3668 10.3947 8.38812 10.3414C8.43076 10.3094 8.49473 10.3308 8.49473 10.3947ZM10.3818 10.3947C10.3604 10.4374 10.4031 10.5013 10.3391 10.5227C10.2751 10.544 10.2325 10.4587 10.2005 10.4374C10.1152 10.2668 10.4244 10.2241 10.3818 10.3947ZM3.19612 10.4587C3.19612 10.544 3.26009 10.6399 3.13215 10.6825H3.06819C3.06819 10.576 3.08951 10.3308 3.02554 10.2348C3.19612 10.2135 3.15348 10.3734 3.19612 10.4587ZM3.83579 10.3308C3.85712 10.4693 3.77183 10.4907 3.67588 10.5546C3.56926 10.4267 3.71852 10.3308 3.71852 10.2028C3.81447 10.1495 3.77183 10.2881 3.83579 10.3308ZM10.1152 10.1069V10.2135C10.0513 10.2135 10.0086 10.1708 9.97664 10.1282V9.96827C10.0726 9.92563 10.0726 10.0429 10.1152 10.1069ZM10.8722 10.4907C10.8935 10.4267 10.9788 10.4054 11.0321 10.448L11.2133 10.2881C11.3413 10.4693 10.8402 10.7785 11.256 10.9277C11.128 10.9917 11.0108 10.8638 10.9255 10.7252L10.9468 10.5227C10.8615 10.5227 10.6803 10.6079 10.5523 10.5227C10.4457 10.416 10.4671 10.2348 10.531 10.1069L10.7123 9.92563C10.7762 10.1069 10.4244 10.4587 10.8722 10.4907ZM4.92323 10.1282C4.83794 10.1708 4.83794 10.0642 4.7953 10.0216L4.81662 9.91497C4.90191 9.93629 4.88059 10.0642 4.92323 10.1282ZM7.73779 10.3947C7.75911 10.4587 7.82308 10.5227 7.86572 10.5546C7.73779 10.5973 7.55655 10.512 7.49258 10.3521C7.44994 10.2241 7.47126 10.1069 7.36465 10.0003C7.18341 10.1815 6.9382 10.416 6.9382 10.7145C6.85291 10.7572 6.7996 10.6719 6.75696 10.6079C6.73564 10.48 6.73564 10.3414 6.84225 10.2561C7.15142 10.2988 7.10878 9.94695 7.33266 9.84034C7.44994 10.0642 7.91903 10.1069 7.73779 10.3947ZM3.56926 10.2668L3.44133 10.4267C3.26009 10.3414 3.52662 10.0962 3.33472 10.1175C3.44133 10.0749 3.20678 9.91497 3.33472 9.78703C3.46265 9.93629 3.70786 10.0429 3.56926 10.2668ZM5.23241 9.77637C5.25373 9.90431 5.21109 10.0642 5.1258 10.1282C5.06183 10.0642 5.10447 9.92563 5.08315 9.84034C5.1258 9.79769 5.16844 9.75505 5.23241 9.77637ZM5.72282 9.69108C5.63753 9.851 5.49894 10.0855 5.65886 10.2668C5.55224 10.2881 5.52026 10.2028 5.45629 10.1602C5.39233 9.93629 5.53092 9.75505 5.72282 9.69108ZM9.53953 9.92563C9.49688 9.98959 9.43292 10.0109 9.43292 10.0642H9.41159C9.30498 9.92563 9.47556 9.79769 9.47556 9.63778C9.58217 9.66976 9.60349 9.84034 9.53953 9.92563ZM4.15563 10.0642C4.09166 10.0855 4.04902 10.1495 3.97439 10.1282C4.01703 9.9896 4.10232 9.81902 4.05968 9.63778C4.19827 9.7124 4.24092 9.92563 4.15563 10.0642ZM9.18771 9.92563C9.16639 10.0322 9.05977 10.0642 8.98515 10.0642C8.87853 10.0216 8.92118 9.90431 8.87853 9.84034L9.03845 10.0003C9.19837 9.84034 8.87853 9.64844 9.0811 9.4672C9.29432 9.55249 9.20903 9.79769 9.18771 9.92563ZM10.4671 9.57381C10.3604 9.68042 10.3071 9.86166 10.3818 10.0003L10.4457 10.1069C10.2858 10.1069 10.2858 9.97893 10.2432 9.86166C10.2858 9.70174 10.2858 9.50984 10.4031 9.37125C10.4671 9.38191 10.5523 9.50984 10.4671 9.57381ZM2.90827 9.92563C2.8443 9.98959 2.80166 10.0642 2.70571 10.0322C2.66306 9.90431 2.86562 9.87232 2.74835 9.74439C2.66306 9.61645 2.43918 9.54182 2.48182 9.34992C2.64174 9.55249 3.00422 9.57381 2.90827 9.92563ZM11.6185 9.61645C11.4905 9.75505 11.4159 9.98959 11.4905 10.2135L11.5332 10.2348L11.4905 10.2774C11.1387 9.96827 11.4479 9.61645 11.5545 9.2753C11.6611 9.37125 11.6611 9.4672 11.6185 9.61645ZM8.5587 9.44587C8.45209 9.75505 9.00647 9.86166 8.62267 10.1282C8.53738 9.92563 8.37746 9.70174 8.39878 9.41389C8.39878 9.34992 8.26019 9.30728 8.33481 9.25397C8.45209 9.24331 8.49473 9.34992 8.5587 9.44587ZM6.37316 9.24331C6.5544 9.57381 5.95737 9.7124 6.14927 10.0003C6.30919 10.0216 6.37316 9.81902 6.50109 9.73373C6.72497 10.0642 6.14927 10.2028 6.34117 10.512C6.40514 10.5333 6.42646 10.4693 6.47977 10.4907L6.50109 10.512C6.43712 10.6932 6.23456 10.6186 6.14927 10.5973C5.96803 10.5333 6.04266 10.3308 6.0853 10.2241C6.17059 10.0429 5.79745 9.91497 5.97869 9.69108C6.14927 9.57381 6.14927 9.3286 6.37316 9.24331ZM3.83579 9.84034C3.79315 9.86166 3.77183 9.92563 3.70786 9.92563C3.84645 9.61645 3.28141 9.49918 3.5053 9.24331C3.60125 9.44587 3.8891 9.57381 3.83579 9.84034ZM7.81242 9.57381C7.87638 9.70174 7.83374 9.84034 7.95101 9.92563C8.05762 9.90431 8.08961 9.98959 8.15357 10.0322C8.19622 10.2135 8.06828 10.3414 7.95101 10.4054C7.92969 10.2455 8.01498 9.97893 7.74845 9.87232C7.48192 9.80835 7.60985 9.45654 7.39663 9.31794C7.31134 9.60579 6.7996 9.66976 7.00217 10.0749C6.95952 10.0749 6.9382 10.0962 6.91688 10.1175C6.81026 10.0322 6.77828 9.89364 6.78894 9.80835C6.97018 9.60579 6.9915 9.33926 7.27936 9.21133C7.48192 9.3286 7.6525 9.42455 7.81242 9.57381ZM4.68869 9.66976C4.56075 9.56315 4.52877 9.38191 4.58208 9.24331L4.62472 9.20067C4.6567 9.34992 4.85927 9.55249 4.68869 9.66976ZM5.18976 9.37125C5.10447 9.41389 5.1258 9.53116 5.02985 9.53116C4.96588 9.40323 4.9872 9.24331 5.13646 9.1367C5.24307 9.1367 5.24307 9.30728 5.18976 9.37125ZM4.30489 9.57381C4.14497 9.48852 4.17695 9.30728 4.16629 9.14736C4.2196 9.28596 4.34753 9.38191 4.30489 9.57381ZM9.78474 9.24331C9.80606 9.3286 9.72077 9.34992 9.69945 9.40323C9.59283 9.36058 9.63548 9.20067 9.59283 9.09405C9.71011 9.08339 9.76341 9.17934 9.78474 9.24331ZM5.45629 9.63778H5.39233C5.34968 9.41389 5.47762 9.24331 5.61621 9.08339C5.78679 9.30728 5.47762 9.42455 5.45629 9.63778ZM11.2666 9.15802C11.2027 9.42455 10.8935 9.64844 11.1067 9.91497L11.0641 9.95761C10.8828 9.82968 10.8828 9.58447 10.9361 9.40323C11.1174 9.34992 11.1067 8.81686 11.2666 9.15802ZM9.37961 9.1367C9.37961 9.20067 9.42226 9.29662 9.33697 9.33926C9.29432 9.15802 8.91052 9.1367 9.15572 8.92348C9.23035 8.97678 9.31564 9.08339 9.37961 9.1367ZM4.05968 9.04075C3.99571 9.08339 4.05968 9.20067 3.97439 9.24331C3.8891 9.11538 3.86778 8.89149 3.66521 8.82753V8.72091C3.81447 8.81686 4.03836 8.82753 4.05968 9.04075ZM3.13215 9.34992C3.1748 9.45654 3.08951 9.53116 3.00422 9.57381C2.86563 9.55249 2.9829 9.37125 2.89761 9.30728C2.76967 9.14736 2.56711 8.97678 2.69505 8.73158C2.86562 8.91282 2.99356 9.1367 3.13215 9.34992ZM7.18341 8.64629C7.44994 9.11538 6.69299 8.97678 6.81026 9.44587C6.72497 9.4672 6.68233 9.36058 6.65035 9.33926C6.67167 9.17934 6.58638 9.11538 6.71431 8.98744C6.84225 9.05141 6.89555 8.9448 6.98084 8.85951C6.97018 8.77422 7.01283 8.60364 7.18341 8.64629ZM7.85506 9.15802C7.99366 9.29662 8.28151 9.28596 8.2282 9.57381L8.16424 9.63778C8.05762 9.41389 7.79109 9.22199 7.56721 9.10472C7.38597 8.97678 7.38597 8.77422 7.30068 8.6143C7.47126 8.82753 7.96167 8.79554 7.85506 9.15802ZM10.8935 8.97678C10.7869 9.11538 10.6056 9.26463 10.7336 9.4672L10.7762 9.48852C10.6483 9.59513 10.6376 9.34992 10.5737 9.26463C10.5097 9.04075 10.7016 8.79554 10.7975 8.58232C10.9361 8.64629 10.9575 8.82753 10.8935 8.97678ZM4.24092 8.71025L4.15563 8.97678C4.01703 8.93414 4.04902 8.73157 4.09166 8.60364C4.17695 8.50769 4.17695 8.66761 4.24092 8.71025ZM6.4158 8.97678C6.2772 9.11538 5.92539 9.17934 6.00001 9.44587C5.86142 9.36058 5.8401 9.17934 5.8934 9.07273C6.032 8.89149 6.2239 8.69959 6.30919 8.53967C6.31985 8.68893 6.4158 8.81686 6.4158 8.97678ZM9.78474 8.64629V8.8062H9.67812L9.63548 8.47571C9.74209 8.48637 9.72077 8.58232 9.78474 8.64629ZM4.48613 8.97678C4.32621 8.89149 4.40084 8.62496 4.42216 8.48637C4.55009 8.60364 4.55009 8.82753 4.48613 8.97678ZM2.18331 8.60364C2.28992 8.73157 2.40719 8.82753 2.40719 8.97678C2.38587 8.9981 2.3219 9.04075 2.34323 9.08339C2.14066 9.10472 2.30058 8.88083 2.20463 8.81686C2.14066 8.68893 2.00207 8.6143 2.04471 8.44372C2.15133 8.4224 2.15133 8.561 2.18331 8.60364ZM5.57357 8.37976C5.75481 8.64629 5.32836 8.8062 5.46695 9.08339C5.40299 9.08339 5.33902 9.08339 5.30704 8.9981C5.23241 8.73158 5.47762 8.53967 5.57357 8.37976ZM5.1258 8.37976C5.21109 8.53967 5.1258 8.71025 5.06183 8.82753C4.95522 8.89149 4.97654 9.03009 4.85927 9.03009C4.68869 8.79554 4.92323 8.50769 5.1258 8.37976ZM3.64389 8.53967H3.5586V8.37976C3.62257 8.4224 3.64389 8.48637 3.64389 8.53967ZM9.42225 8.81686C9.42225 8.59298 8.84655 8.44372 9.15572 8.17719C9.29432 8.33711 9.49688 8.561 9.42225 8.81686ZM11.6931 9.09405C11.8317 8.89149 12.0023 8.66761 12.0449 8.39042C12.1302 8.47571 12.1835 8.63562 12.1089 8.76356C12.0023 8.89149 11.8637 8.98744 11.885 9.15802C11.9276 9.26463 12.0449 9.24331 12.0449 9.33926C11.885 9.42455 11.7357 9.17934 11.5971 9.09405C11.4159 8.95546 11.3733 8.64629 11.4905 8.43306L11.6504 8.10256C11.9276 8.40108 11.4266 8.79554 11.6931 9.09405ZM4.52877 8.07058V8.2305C4.4648 8.27314 4.42216 8.20918 4.40084 8.16653C4.34753 8.0919 4.44348 7.93199 4.52877 8.07058ZM8.87853 8.82753L8.69729 8.96612C8.83589 9.07273 8.83589 9.21133 8.87853 9.36058L8.81457 9.44587C8.79324 9.28596 8.68663 9.1367 8.54804 9.07273C8.28151 9.05141 8.50539 8.69959 8.34547 8.58232C8.47341 8.60364 8.50539 8.82753 8.65465 8.91281C8.71862 8.93414 8.76126 8.87017 8.78258 8.82753C8.86787 8.45438 8.29217 8.41174 8.43076 8.00661L8.34547 7.9C8.53738 8.24116 9.11308 8.37976 8.87853 8.82753ZM3.99571 8.44372C3.95307 8.48637 3.93174 8.52901 3.85712 8.50769C4.03836 8.2838 3.61191 8.13455 3.79315 7.91066C3.84645 8.07058 4.081 8.24116 3.99571 8.44372ZM9.91267 8.04926C9.89135 8.0919 9.93399 8.17719 9.87002 8.20918C9.80606 8.12389 9.58217 8.02794 9.68878 7.87868C9.82738 7.82537 9.82738 7.98529 9.91267 8.04926ZM4.75265 8.35843C4.62472 8.17719 4.81662 7.94265 4.95522 7.8467C5.08315 8.02794 4.90191 8.24116 4.75265 8.35843ZM2.44984 8.27314V8.49703H2.36455C2.42852 8.16653 1.85281 8.10256 2.03405 7.74008C2.28992 7.82537 2.24728 8.17719 2.44984 8.27314ZM6.31985 8.17719C6.21324 8.30513 5.96803 8.33711 6.01068 8.55033L6.11729 8.65695C6.11729 8.72091 6.032 8.67827 5.98935 8.67827C5.85076 8.55033 5.82943 8.32645 5.88274 8.16653L6.21324 7.69744C6.23456 7.82537 6.4158 7.98529 6.31985 8.17719ZM9.49688 7.8467C9.53953 7.95331 9.49688 8.04926 9.41159 8.11323C9.53953 7.88934 8.72928 7.62281 9.3263 7.66546L9.49688 7.8467ZM7.47126 8.15587C7.60985 8.24116 7.88704 8.24116 7.82308 8.48637C7.92969 8.64629 8.1749 8.55033 8.23886 8.71025C8.30283 8.87017 8.15357 8.93414 8.07895 9.04075H8.00432C8.13225 8.83819 7.91903 8.6143 7.73779 8.55033C7.36465 8.50769 7.36465 8.13455 7.09812 7.95331C7.11944 8.30513 6.67167 8.36909 6.7463 8.71025C6.63968 8.7529 6.56506 8.64629 6.54373 8.58232C6.40514 8.18785 6.9382 8.07058 6.83159 7.74008C6.97018 7.69744 7.11944 7.74008 7.20473 7.58017C7.14076 7.76141 7.27936 8.02794 7.47126 8.15587ZM5.61621 7.55884C5.74415 7.86802 5.28571 7.95331 5.39233 8.24116C5.28571 8.2838 5.25373 8.17719 5.23241 8.11323C5.16844 7.8467 5.39233 7.62281 5.61621 7.55884ZM4.52877 7.8467C4.40084 7.82537 4.44348 7.64413 4.48613 7.55884L4.57141 7.5162C4.63538 7.62281 4.55009 7.74008 4.52877 7.8467ZM9.87002 7.55884C9.87002 7.62281 9.80606 7.64413 9.78474 7.68678C9.64614 7.66546 9.62482 7.50554 9.6035 7.39893C9.76341 7.3776 9.89135 7.3776 9.87002 7.55884ZM7.79109 7.62281C7.81242 7.93199 8.59068 8.07058 8.01498 8.37976H8.00432C8.00432 8.19852 7.94035 8.02794 7.75911 7.88934C7.59919 7.97463 7.42861 7.76141 7.33266 7.62281V7.39893C7.47126 7.45223 7.63118 7.58017 7.79109 7.62281ZM8.86787 8.11323C8.68663 8.11323 8.78258 7.8467 8.60134 7.82537C8.29217 7.74008 8.49473 7.45223 8.39878 7.24967L8.44143 7.29231L8.50539 7.22835C8.3668 7.62281 9.14506 7.69744 8.85721 8.11323H8.86787ZM4.97654 7.42025L4.7953 7.68678C4.68869 7.50554 4.81662 7.31364 4.92323 7.17504C5.01918 7.1857 4.97654 7.33496 4.97654 7.42025ZM6.21324 7.1324C6.14927 7.31364 5.98935 7.48422 6.05332 7.72942C5.92539 7.77207 5.87208 7.62281 5.82943 7.56951C5.80811 7.38827 5.80811 7.21769 5.95737 7.10041C6.032 7.11107 6.14927 7.06843 6.21324 7.1324ZM4.59274 7.24967C4.52877 7.29231 4.50745 7.38827 4.43282 7.35628C4.4115 7.22835 4.49679 7.17504 4.57141 7.08975C4.63538 7.1324 4.59274 7.20703 4.59274 7.24967ZM2.68438 7.8467C2.70571 7.95331 2.64174 8.04926 2.54579 8.07058H2.48182C2.64174 7.67612 2.01273 7.49488 2.19397 7.08975C2.57777 7.22835 2.28992 7.68678 2.68438 7.8467ZM10.6909 7.71876L10.9361 7.29231C11.2027 7.66546 10.5097 8.0919 11.0428 8.35843C11.0641 8.0919 11.2666 7.91066 11.3306 7.65479C11.7251 8.07058 10.8615 8.33711 11.288 8.76356C11.0854 8.72091 11.1067 8.33711 10.7975 8.27314C10.595 8.00661 10.8402 7.71876 10.4457 7.61215C10.3178 7.52686 10.3604 7.34562 10.4031 7.23901L10.627 6.95116C10.7975 7.20703 10.2751 7.55884 10.6909 7.71876ZM7.18341 7.1324C7.16208 7.52686 6.47977 7.46289 6.71431 7.8467H6.49043C6.42646 7.76141 6.46911 7.64413 6.44778 7.5162C6.86357 7.47355 6.62902 6.85521 7.10878 6.96182L7.18341 7.1324ZM8.98515 7.49488L8.82523 7.55884C8.84655 7.20703 8.29217 7.20703 8.49473 6.8019C8.69729 6.98314 9.02779 7.20702 8.98515 7.49488ZM9.71011 6.75926C9.71011 6.88719 9.7954 7.17504 9.58217 7.22835C9.56085 7.20702 9.53953 7.1857 9.49688 7.1857C9.56085 7.10041 9.63548 7.02579 9.6035 6.89785C9.51821 6.81256 9.44358 7.00446 9.33697 7.05777C9.33697 7.16438 9.37961 7.26033 9.31564 7.34562C9.31564 7.20703 8.89986 7.10041 9.11308 6.91917L9.31564 7.02579C9.33697 6.87653 9.51821 6.61 9.71011 6.75926ZM5.72282 6.89785C5.54158 7.03645 5.29638 7.1857 5.29638 7.40959C5.16844 7.3243 5.25373 7.16438 5.23241 7.05777C5.29638 6.85521 5.52026 6.72727 5.68018 6.63132C5.74415 6.69529 5.7015 6.8019 5.72282 6.89785ZM8.16424 7.39893C8.2282 7.44157 8.18556 7.52686 8.18556 7.58017C8.14291 7.64413 8.07895 7.71876 8.00432 7.68678C7.98299 7.48422 7.82308 7.33496 7.63118 7.26033C7.42861 7.38827 7.322 7.05777 7.23671 6.92983C7.322 6.84455 7.4606 6.74859 7.36465 6.59934C7.60985 6.85521 7.89771 7.14306 8.16424 7.39893ZM4.6567 6.58868C4.74199 6.69529 4.67803 6.83388 4.59274 6.91917H4.52877C4.4648 6.8019 4.48613 6.58868 4.6567 6.58868ZM5.1258 6.53537C5.16844 6.75926 4.92323 6.75926 4.81662 6.92983C4.68869 6.72727 4.90191 6.55669 5.01918 6.4181C5.1258 6.38611 5.06183 6.49273 5.1258 6.53537ZM9.273 6.49273C9.29432 6.62066 9.29432 6.75926 9.14506 6.8019H9.0811C9.28366 6.57802 8.65465 6.33281 9.10242 6.26884L9.273 6.49273ZM7.14076 6.26884C7.18341 6.40744 7.05547 6.55669 6.98084 6.68463C6.85291 6.76992 6.67167 6.95116 6.5544 6.82322L6.44778 6.86587C6.52241 6.57802 6.70365 6.11958 7.14076 6.26884ZM3.72918 6.67397C3.81447 6.71661 3.86778 6.87653 3.79315 7.00446C3.66521 7.02579 3.56926 7.14306 3.44133 7.1857C3.5053 7.34562 3.7505 7.38827 3.66521 7.61215C3.60125 7.79339 3.42001 7.63347 3.33472 7.77207C3.42001 7.9 3.53728 8.01728 3.49464 8.19852C3.40935 8.33711 3.27075 8.33711 3.16414 8.37976C3.27075 8.51835 3.5586 8.68893 3.40935 8.91281C3.34538 8.97678 3.27075 9.01943 3.18546 9.01943C3.22811 8.91281 3.29207 8.81686 3.27075 8.68893C3.11083 8.561 2.85496 8.55033 2.80166 8.33711C2.82298 8.2305 2.78034 8.13455 2.8443 8.04926L3.13215 8.33711C3.23877 8.27314 3.37736 8.13455 3.27075 7.98529C3.16414 7.87868 2.9829 7.85736 2.96158 7.69744C2.9829 7.63347 2.94025 7.56951 3.00422 7.53752C3.14282 7.53752 3.31339 7.80405 3.43067 7.55884C3.47331 7.27099 3.12149 7.24967 3.01488 7.00446C3.12149 6.96182 3.10017 6.8019 3.21744 6.84454C3.34538 6.90851 3.32406 7.06843 3.46265 7.04711C3.7505 6.71661 2.72703 6.34347 3.46265 6.20487C3.48397 6.40744 3.56926 6.57802 3.72918 6.67397ZM8.2282 6.8019C8.29217 6.90851 8.27085 7.08975 8.12159 7.1324H8.07895C8.12159 6.68463 7.52456 6.68463 7.4606 6.2262C7.58853 6.29016 7.64184 6.14091 7.74845 6.2262C7.87638 6.42876 8.05762 6.63132 8.2282 6.8019ZM8.76126 6.53537C8.8892 6.59934 8.84655 6.71661 8.84655 6.82322H8.86787L8.78258 6.90851C8.76126 6.49273 8.2282 6.6633 8.12159 6.26884V6.16223C8.40944 6.09826 8.47341 6.49273 8.76126 6.53537ZM6.54373 6.16223C6.45845 6.42876 6.12795 6.61 6.09596 6.89785C5.95737 6.83388 5.87208 6.67397 5.95737 6.56735C6.15993 6.43942 6.15993 6.0343 6.44778 6.15157H6.54373V6.16223ZM9.58217 6.36479C9.56085 6.42876 9.60349 6.50339 9.53953 6.56735C9.41159 6.46074 9.273 6.2795 9.20903 6.09826C9.37961 6.09826 9.53953 6.20487 9.58217 6.36479ZM4.81662 6.03429C4.90191 6.14091 4.81662 6.25818 4.75265 6.32215V6.03429H4.81662ZM5.14712 6.00231L5.1258 6.14091C5.04051 6.11958 4.99786 6.01297 5.01918 5.93834C5.08315 5.91702 5.1258 5.95967 5.14712 6.00231ZM5.72282 6.36479C5.54158 6.30082 5.47762 6.4714 5.30704 6.4714C5.14712 6.09826 5.61621 6.05562 5.77613 5.87438C5.81877 6.01297 5.81877 6.24752 5.72282 6.36479ZM8.87853 6.16223C8.83589 6.20487 8.81457 6.26884 8.7506 6.2262C8.77192 6.06628 8.68663 5.98099 8.81457 5.83173C8.87853 5.93834 8.96382 6.05562 8.87853 6.16223ZM2.73769 6.00231C2.69505 5.98099 2.67372 6.04496 2.63108 6.06628C2.58843 6.4181 3.3667 6.64198 2.791 6.90851C2.791 6.88719 2.74835 6.86587 2.72703 6.86587C2.50314 7.06843 3.01488 7.15372 2.88695 7.39893C2.8443 7.53752 2.70571 7.53752 2.5991 7.55884L2.49248 7.45223C2.62042 7.36694 2.6524 7.22835 2.5991 7.12174C2.49248 6.96182 2.24728 6.81256 2.39653 6.58868C2.50314 6.67397 2.57777 6.79124 2.68438 6.85521C2.791 6.79124 2.82298 6.67397 2.76967 6.58868C2.58843 6.42876 2.35389 6.23686 2.4605 5.99165C2.43918 5.74644 2.72703 5.85305 2.73769 6.00231ZM11.0641 5.83173C10.9255 5.93834 10.6163 5.99165 10.6696 6.25818C10.8509 6.23686 11.0961 6.21554 11.2666 6.03429C11.4479 6.40744 10.7336 6.42876 10.9361 6.81256L11.0428 6.91917C11.0854 6.67397 11.3519 6.56735 11.5332 6.42876C11.5545 6.51405 11.6185 6.56735 11.5971 6.67397C11.4585 6.83388 11.2027 6.9405 11.288 7.1857L11.4266 7.3243C11.6291 7.19636 11.5332 6.83388 11.853 6.81256L11.9596 6.91917C11.8743 7.1857 11.3413 7.36694 11.6931 7.67612C11.8743 7.67612 11.8317 7.47355 11.9596 7.38826L12.2261 7.07909C12.4287 7.34562 11.6718 7.67612 12.0876 7.9L12.418 7.56951C12.578 7.87868 11.8637 8.14521 12.3541 8.27314C12.3541 8.31579 12.3328 8.33711 12.3114 8.35843C12.0876 8.35843 12.1089 8.0919 11.9596 7.98529C11.6718 7.78273 11.5865 7.43091 11.256 7.3243C11.1707 7.03645 10.9042 6.92983 10.7656 6.68463C10.8935 6.33281 10.3711 6.21554 10.563 5.88504C10.6483 5.74644 11.0214 5.50124 11.0641 5.83173ZM9.33697 5.93834L9.31564 5.98099C9.17705 5.8957 9.17705 5.7571 9.18771 5.60785C9.29432 5.67181 9.40093 5.78909 9.33697 5.93834ZM3.93174 6.32215C3.84645 6.38611 3.72918 6.52471 3.66521 6.40744C3.64389 6.38611 3.62257 6.40744 3.60125 6.42876C3.64389 6.34347 3.64389 6.24752 3.64389 6.14091C3.46265 5.98099 3.33472 5.78909 3.29207 5.5652L3.37736 5.50124C3.60125 5.76777 4.01703 5.8957 3.93174 6.32215ZM11.821 6.20487C11.8637 6.16223 11.9276 6.11958 11.9276 6.06628C12.1515 6.15157 11.9276 6.35413 11.9916 6.49273L12.0982 6.63132C12.0342 6.67397 11.917 6.52471 11.8317 6.4714C11.8956 6.38611 11.8743 6.2262 11.7251 6.2262C11.5971 6.29016 11.5971 6.14091 11.5438 6.09826C11.4585 5.87438 11.5225 5.58652 11.7677 5.47991C11.8423 5.69314 11.3093 6.09826 11.821 6.20487ZM5.28571 5.71446C5.26439 5.7571 5.22175 5.73578 5.1791 5.73578V5.44793C5.23241 5.52256 5.32836 5.58653 5.28571 5.71446ZM7.09812 5.44793C7.11944 5.42661 7.14076 5.40529 7.18341 5.40529C7.11944 5.5119 7.02349 5.60785 7.09812 5.71446C7.14076 5.7571 7.23671 5.7571 7.20473 5.84239C7.07679 5.98099 6.89555 5.88504 6.77828 5.82107C6.71431 5.71446 6.63969 5.59719 6.71431 5.49057C6.83159 5.40529 6.97018 5.45859 7.09812 5.44793ZM7.85506 5.40529C7.94035 5.53322 7.99366 5.65049 7.89771 5.77843C7.76977 5.86372 7.60985 5.91702 7.47126 5.84239L7.40729 5.77843C7.47126 5.71446 7.56721 5.61851 7.53522 5.49057L7.47126 5.40529C7.49258 5.34132 7.55655 5.38396 7.59919 5.38396C7.6525 5.47991 7.79109 5.50124 7.85506 5.40529ZM1.75686 5.27735C1.75686 5.36264 1.65025 5.34132 1.61827 5.38396C1.62893 5.32 1.67157 5.23471 1.75686 5.27735ZM6.14927 5.23471L6.17059 5.21338C6.2772 5.34132 6.39448 5.32 6.50109 5.39462L6.63968 5.33066C6.61836 5.5119 6.43712 5.61851 6.50109 5.82107C6.37316 5.86372 6.21324 5.7571 6.14927 5.61851C6.14927 5.43727 5.73348 5.39462 5.98935 5.17074C6.05332 5.1814 6.10663 5.1814 6.14927 5.23471ZM1.33041 5.34132C1.35174 5.29867 1.39438 5.29867 1.43703 5.29867L1.50099 5.40529C1.39438 5.46925 1.23446 5.34132 1.12785 5.49057C1.14917 5.36264 1.12785 5.30933 1.12785 5.13876L1.33041 5.34132ZM10.8722 5.11743C11.1387 5.60785 10.3391 5.36264 10.4564 5.82107C10.3711 5.84239 10.3711 5.71446 10.3285 5.68248C10.3071 5.47991 10.5523 5.43727 10.5523 5.23471C10.6483 5.16008 10.7336 5.07479 10.8722 5.11743ZM8.45209 5.67181C8.34547 5.77843 8.2282 5.87438 8.05762 5.83173C8.14291 5.65049 8.05762 5.50124 8.07895 5.34132L8.16424 5.40529L8.43076 5.11743C8.63333 5.23471 8.45209 5.47991 8.45209 5.67181ZM3.23877 5.73578C3.26009 5.93834 3.23877 6.13025 3.0362 6.20487H2.95091C3.23877 5.7571 2.55645 5.50124 2.62042 5.11743C3.00422 5.21338 2.80166 5.73578 3.23877 5.73578ZM12.514 4.96818C12.514 5.03214 12.578 5.07479 12.6206 5.10677L12.7805 4.96818C12.8445 5.17074 13.0257 5.12809 13.0684 5.34132C13.1323 5.40528 13.2283 5.46925 13.1537 5.54388C12.9511 5.5652 12.9511 5.34132 12.8019 5.23471C12.6739 5.17074 12.3114 5.23471 12.45 4.96818H12.514ZM1.44769 4.89355C1.46901 4.93619 1.42636 4.97884 1.38372 5.02148C1.38372 4.94685 1.38372 4.87223 1.44769 4.89355ZM13.5055 4.94685L13.4415 5.01082C13.4202 4.9895 13.3989 4.96818 13.3776 4.96818L13.4415 4.84024C13.4842 4.8509 13.5055 4.90421 13.5055 4.94685ZM4.68869 5.13876C4.75265 5.07479 4.71001 4.97884 4.71001 4.89355H4.73133L4.81662 4.97884C4.67803 5.22404 4.99786 5.57586 4.6567 5.68248C4.78464 6.09826 4.30488 6.17289 4.43282 6.58868C4.10232 6.72727 4.4115 7.16438 4.16629 7.36694C4.32621 7.67612 4.00637 7.92132 4.20893 8.18785V8.29447C4.02769 8.11323 3.98505 7.82537 4.00637 7.58017C3.96373 7.47355 3.86778 7.3776 3.9424 7.27099C4.02769 7.29231 4.10232 7.47355 4.16629 7.31364C4.12364 7.08975 3.98505 6.84455 4.03836 6.61L4.16629 6.76992C4.34753 6.63132 4.10232 6.46074 4.16629 6.2795C4.18761 6.15157 4.12365 5.99165 4.25158 5.90636C4.31555 5.97033 4.31555 6.15157 4.4115 6.21554C4.45414 5.99165 4.30488 5.74644 4.2729 5.5119L4.33687 5.44793C4.4648 5.49057 4.44348 5.69314 4.58208 5.73578C4.72067 5.38396 4.31555 5.1814 4.42216 4.78694C4.55009 4.8509 4.55009 5.07479 4.68869 5.13876ZM7.14076 4.72297C7.16208 4.80826 6.98084 4.82958 6.9382 4.82958C6.97018 4.76561 7.07679 4.76561 7.14076 4.72297ZM1.3624 4.82958H1.31975L1.42636 4.69099C1.44769 4.74429 1.38372 4.76561 1.3624 4.82958ZM0.957268 4.72297V4.78694H0.893302V4.68032C0.935947 4.659 0.935946 4.70165 0.957268 4.72297ZM1.82083 5.05347C1.79951 5.09611 1.75686 5.07479 1.71422 5.07479C1.91678 4.94685 1.5543 4.82958 1.60761 4.659C1.69289 4.74429 1.89546 4.8509 1.82083 5.05347ZM13.6121 4.72297L13.3882 4.58437L13.5481 4.62702L13.6121 4.72297ZM11.6931 5.11743C11.5118 5.22404 11.1387 5.25603 11.2027 5.5652C11.0747 5.52256 11.1174 5.29867 11.16 5.21338C11.288 5.05347 11.5865 4.9895 11.5545 4.74429L11.7784 4.58437C11.7997 4.70165 11.7997 4.96818 11.6931 5.11743ZM10.6909 4.8509C10.4671 4.8509 10.3604 5.07479 10.2432 5.22404C10.0406 5.00016 10.3711 4.8509 10.3818 4.66966C10.4884 4.66966 10.5417 4.53107 10.6696 4.56305V4.54173L10.6909 4.8509ZM5.74415 4.8509L5.85076 4.74429C5.85076 4.80826 5.91472 4.82958 5.8934 4.88289C5.93605 4.96818 6.00001 4.84024 6.05332 4.84024C6.21324 5.0428 5.8934 5.00016 5.82943 5.12809L5.69084 5.43727C5.36034 5.29867 5.40299 4.90421 5.09381 4.73363C5.07249 4.64834 5.00852 4.6057 5.02985 4.50975L5.3177 4.73363C5.47762 4.71231 5.42431 4.55239 5.52026 4.4671C5.59489 4.58437 5.61621 4.78694 5.74415 4.8509ZM3.1748 4.659C3.15348 4.68032 3.11083 4.68032 3.06819 4.68032C3.06819 4.63768 3.06819 4.54173 3.11083 4.47776C3.13215 4.49908 3.19612 4.58437 3.1748 4.659ZM12.6846 4.72297L12.6419 4.74429C12.6206 4.61636 12.6633 4.52041 12.7485 4.45644C12.8445 4.52041 12.7272 4.63768 12.6846 4.72297ZM4.05968 4.94685C4.16629 4.86156 4.26224 4.94685 4.30489 5.05347C4.24092 5.13876 4.26224 5.27735 4.14497 5.29867C4.00637 5.23471 4.00637 4.9895 3.79315 4.96818C3.66521 4.96818 3.54794 4.90421 3.5053 4.78694C3.39868 4.82958 3.42001 4.96818 3.48397 5.05347C3.56926 5.29867 3.85712 5.36264 4.10232 5.44793C4.16629 5.55454 4.16629 5.65049 4.10232 5.77843C4.05968 5.82107 4.01703 5.86372 3.97439 5.84239C3.99571 5.41595 3.31339 5.63983 3.37736 5.13876C3.35604 5.05347 3.42001 4.95751 3.29207 4.91487L3.47331 4.4671C3.57992 4.72297 3.91042 4.72297 4.05968 4.94685ZM12.2368 4.94685C12.1089 5.12809 12.2581 5.32 12.418 5.39462L12.7912 5.3733C12.6633 5.57586 13.1643 5.84239 12.7485 5.88504C12.482 5.84239 12.482 5.30933 12.0876 5.43727C11.9276 5.19206 12.1089 4.86156 12.0449 4.61636C12.2475 4.659 12.3754 4.55239 12.4714 4.41379C12.5033 4.63768 12.482 4.90421 12.2368 4.94685ZM2.90827 4.61636C2.95091 4.92553 3.5053 5.12809 3.11083 5.43727C3.19612 5.23471 2.9829 5.02148 2.90827 4.88289C2.74835 4.88289 2.64174 4.70165 2.53513 4.57371L2.51381 4.41379C2.62042 4.45644 2.72703 4.659 2.90827 4.61636ZM13.8786 4.61636C13.8786 4.659 13.8786 4.68032 13.9 4.72297C13.772 4.659 13.6334 4.45644 13.5055 4.34983C13.6441 4.37115 13.7933 4.47776 13.8786 4.61636ZM9.273 4.52041C9.40093 4.94685 8.89986 5.07479 8.76126 5.38396H8.69729C8.87853 5.11743 8.47341 5.09611 8.5587 4.89355C8.60134 4.89355 8.69729 4.89355 8.69729 4.82958C8.612 4.66966 8.80391 4.69099 8.83589 4.62702C8.9425 4.73363 8.89986 4.91487 9.0811 4.95752C9.12374 4.91487 9.16639 4.89355 9.14506 4.82958C9.00647 4.76561 9.01713 4.6057 8.98515 4.47776C9.02779 4.49908 9.04911 4.43512 9.09176 4.41379L9.04911 4.30718C9.15572 4.34983 9.18771 4.45644 9.273 4.52041ZM8.02564 4.58437C7.98299 4.54173 8.08961 4.42446 8.06828 4.31784C8.14291 4.37115 8.0363 4.49908 8.02564 4.58437ZM8.38812 4.39247H8.34547V4.28586H8.38812V4.39247ZM1.33041 4.47776C1.24512 4.6057 1.24512 4.76561 1.10653 4.8509C0.999914 4.82958 0.946607 4.89355 0.861318 4.91487C0.861318 4.87223 0.903963 4.80826 0.839996 4.78694L0.680079 4.89355C0.722723 4.6057 1.07455 4.6057 1.23446 4.40313C1.34108 4.36049 1.45835 4.29652 1.54364 4.31784C1.53298 4.45644 1.3624 4.34983 1.33041 4.47776ZM7.20473 4.21123C7.16208 4.29652 7.04481 4.23255 7.04481 4.14726H7.20473V4.21123ZM4.73133 4.45644C4.68869 4.54173 4.68869 4.63768 4.68869 4.74429C4.58208 4.58437 4.31555 4.39247 4.42216 4.14726C4.56075 4.18991 4.55009 4.41379 4.71001 4.45644H4.73133ZM7.48192 4.54173C7.76977 4.45644 7.83374 4.11528 8.07895 4.09396C8.14291 4.2752 8.28151 4.56305 8.05762 4.73363C7.95101 4.86156 7.60985 4.86156 7.56721 4.86156C7.60985 4.84024 7.69514 4.84024 7.72713 4.75495C7.48192 4.61636 7.23671 4.86156 7.01283 4.91487C6.81026 4.87223 6.54373 4.93619 6.43712 4.66966L6.54373 3.98735C6.81026 4.21123 7.05547 4.70165 7.49258 4.56305V4.54173H7.48192ZM4.26224 4.34983C4.34753 4.47776 4.28356 4.59503 4.15563 4.68032C3.97439 4.659 3.99571 4.39247 3.78249 4.39247C3.6972 4.39247 3.62257 4.34983 3.5586 4.28586L3.60125 3.91272C3.8891 3.98735 3.84645 4.52041 4.26224 4.34983ZM10.4031 4.34983C10.2218 4.43512 10.2432 4.21123 10.0726 4.24322C10.1579 4.01933 10.4457 3.97669 10.627 3.84875C10.6483 4.02999 10.7123 4.39247 10.4031 4.34983ZM7.60985 3.96602C7.56721 4.00867 7.56721 4.09396 7.48192 4.12594C7.41795 4.12594 7.34332 4.0833 7.30068 4.14726C7.27936 4.21123 7.322 4.25388 7.36465 4.28586C7.54589 4.26454 7.67382 4.0833 7.75911 3.95536C7.89771 4.06198 7.67382 4.09396 7.71646 4.20057C7.47126 4.44578 7.16208 4.32851 6.9382 4.24322C6.81026 4.20057 6.89555 4.06198 6.87423 3.97669C6.95952 3.83809 7.09812 3.87007 7.20473 3.81677C7.36465 3.79545 7.47126 3.90206 7.59919 3.95536H7.60985V3.96602ZM11.8637 3.76346C11.7251 3.98735 11.885 4.40313 11.4905 4.42446C11.288 4.40313 11.1814 4.62702 11.0001 4.69099C10.9148 4.53107 11.0001 4.36049 11.0641 4.22189C11.224 4.26454 11.4799 4.40313 11.6185 4.15793C11.6185 3.98735 11.5971 3.69949 11.8637 3.76346ZM5.45629 4.05131C5.56291 3.98735 5.49894 3.84875 5.52026 3.74214C5.68018 3.92338 5.49894 4.15793 5.47762 4.36049C5.41365 4.40313 5.371 4.54173 5.25373 4.48842C5.21109 4.22189 4.78464 4.20057 4.90191 3.87007C5.04051 3.78478 5.21109 3.80611 5.3177 3.66751C5.371 3.78478 5.34968 3.9447 5.45629 4.05131ZM9.64614 4.39247L9.78474 4.41379C9.87002 4.76561 9.36895 4.9895 9.64614 5.29867C9.78473 5.25603 9.66746 5.09611 9.75275 5.01082L9.95531 4.72297C10.0406 4.9895 9.95531 5.34132 9.75275 5.5652C9.75275 5.65049 9.73143 5.74644 9.7954 5.81041C9.90201 5.74644 9.97664 5.62917 10.0832 5.54388C10.1472 5.83173 9.71011 6.09826 9.99796 6.40744L10.2432 6.05562C10.3498 6.32215 9.87002 6.63132 10.1792 6.91917C10.2005 6.73793 10.3818 6.63132 10.4457 6.4714C10.5843 6.73793 10.3178 6.91917 10.2432 7.17504C10.2432 7.39893 10.2218 7.79339 10.2858 8.01728C10.3711 7.99595 10.3285 7.85736 10.4457 7.88934C10.5523 8.07058 10.6483 8.24116 10.6056 8.48637C10.5417 8.6143 10.3604 8.68893 10.3391 8.83819L10.4457 9.10472C10.3604 9.04075 10.2432 9.04075 10.2005 8.92348C10.1792 8.6143 10.3604 8.41174 10.4457 8.16653L10.3818 8.08124C10.1792 8.14521 10.2538 8.34777 10.1366 8.45438C10.1152 8.14521 10.3391 7.79339 10.0726 7.50554C10.0726 7.21769 10.2325 6.90851 9.94465 6.70595C10.0299 6.29016 9.55019 6.10892 9.67812 5.68248C9.49688 5.50124 9.47556 5.21338 9.43292 4.97884C9.39027 4.50975 9.80606 4.22189 9.74209 3.74214L9.80606 3.61421C9.74209 3.88074 9.80606 4.16859 9.64614 4.39247ZM13.3456 3.43297C13.4309 3.53958 13.2816 3.67817 13.1857 3.74214H13.1217C13.0151 3.57156 13.2603 3.50759 13.3456 3.43297ZM1.33041 3.52892C1.24512 3.46495 1.19182 3.61421 1.12785 3.52892C1.11719 3.369 1.34108 3.43297 1.33041 3.52892ZM14.1025 4.34983L13.9959 4.45644C13.8573 4.34983 13.7933 4.10462 13.5481 4.14726C13.4415 4.06198 13.4628 3.96602 13.3456 3.88074C13.3882 3.83809 13.4735 3.90206 13.5055 3.92338C13.6441 3.76346 13.5268 3.59288 13.6121 3.39032C13.5481 3.81677 14.1665 3.90206 14.1025 4.34983ZM10.5097 3.74214C10.1792 3.51825 10.0406 4.29652 9.91267 3.82743C9.95531 3.68883 10.0939 3.58222 10.1366 3.43297C10.3391 3.45429 10.531 3.43297 10.6696 3.27305C10.6696 3.369 10.627 3.63553 10.5097 3.74214ZM13.0151 3.20908L12.9085 3.29437C12.9938 3.29437 12.9938 3.13445 12.9511 3.07048C12.9724 3.10247 13.0364 3.14511 13.0151 3.20908ZM9.42225 3.12379C9.35829 3.10247 9.31564 3.16644 9.28366 3.20908L9.39027 3.27305C9.26234 3.29437 9.41159 3.47561 9.23035 3.37966C9.39027 3.44363 9.14506 3.15577 9.35829 3.07048L9.42225 3.12379ZM4.15563 3.55024C4.17695 3.73148 4.42216 3.85941 4.29422 4.04065C4.23026 4.06198 4.18761 4.14727 4.13431 4.12594C4.17695 3.96602 4.04902 3.81677 3.99571 3.73148C3.85712 3.73148 3.66521 3.60354 3.54794 3.44363V3.02784C3.62257 3.34768 3.97439 3.34768 4.15563 3.55024ZM2.28992 3.12379L2.35389 3.20908C2.24728 3.43297 1.92744 3.34768 1.82083 3.5609C2.02339 3.66751 2.31124 3.62487 2.41786 3.8914C2.52447 4.22189 2.19397 4.57371 2.4605 4.86156C2.41786 5.08545 2.25794 5.30933 2.35389 5.5652C2.00207 5.62917 1.98075 6.0343 1.61827 6.07694C1.43703 5.99165 1.75686 5.7038 1.43703 5.78909C1.52232 5.58653 1.78885 5.74644 1.92744 5.65049C2.15133 5.54388 2.17265 5.23471 2.15133 5.03214C1.99141 4.8509 1.75686 4.68032 1.75686 4.43512C1.86347 4.45644 1.9381 4.56305 2.04471 4.47776L2.20463 4.2752C2.09802 4.14726 1.91678 4.41379 1.85281 4.16859C1.58628 4.12594 1.38372 4.0833 1.14917 4.23255C1.28777 4.05131 1.23446 3.65685 1.57562 3.67817C1.66091 3.51825 1.46901 3.369 1.35174 3.28371C1.19182 3.12379 1.02124 3.30503 0.935946 3.44363C0.871979 3.57156 0.914624 3.7528 1.04256 3.83809L1.10653 3.77412C1.30909 4.20057 0.552144 4.18991 0.680079 4.63768C0.616111 4.63768 0.552143 4.76561 0.498837 4.68032C0.210985 4.30718 0.722722 4.06198 0.850656 3.77412C0.584127 3.01718 1.49033 3.30503 1.69289 2.80396C1.89546 2.89991 2.04471 3.12379 2.28992 3.12379ZM13.5055 3.0385L13.5481 3.12379C13.4628 3.05982 13.3456 3.10247 13.239 3.10247C13.079 3.32635 12.9085 3.55024 12.8445 3.81677C12.9724 3.83809 13.0897 3.90206 13.175 4.01933V4.30718C12.8658 4.06198 12.4607 4.17925 12.1089 4.30718L12.0449 4.24322L12.0876 3.64619C12.3114 3.5609 12.578 3.64619 12.7912 3.73148C12.8552 3.66751 12.8765 3.62487 12.8552 3.55024C12.7166 3.0385 11.885 3.77412 12.0982 3.05982C12.3861 3.08115 12.4074 2.50544 12.7592 2.77197C12.9724 2.92123 13.2816 2.85726 13.5055 3.0385ZM8.32415 2.94255C8.28151 3.07048 8.12159 3.08115 8.01498 3.12379C7.88704 3.14511 7.81242 3.12379 7.72713 3.0385C7.79109 2.95321 7.99366 3.0385 8.07895 2.89991C8.21754 2.83594 8.16423 2.71867 8.26019 2.63338C8.32415 2.708 8.38812 2.83594 8.32415 2.94255ZM4.59274 2.85726C4.45414 3.16644 4.88059 3.34768 4.59274 3.59288C4.61406 3.73148 4.72067 3.88074 4.63538 4.01933C4.50745 3.91272 4.45414 3.73148 4.36885 3.59288C4.63538 3.50759 4.59274 3.19842 4.49679 2.99586C4.36885 2.86792 4.29422 2.58007 4.07034 2.708C4.04902 2.81462 4.19827 2.81462 4.25158 2.8466C4.35819 2.9852 4.4115 3.13445 4.4115 3.31569L4.32621 3.37966C4.32621 3.19842 4.12364 3.11313 3.97439 3.04916C3.83579 3.13445 3.62257 3.02784 3.60125 2.8466L3.66521 2.55875C3.99571 2.63338 4.36885 2.56941 4.59274 2.85726ZM10.4031 2.89991C10.1366 2.77197 10.0299 3.10247 9.8487 3.12379V2.99586C10.1152 2.97453 10.1579 2.58007 10.4671 2.66536L10.6056 2.52676C10.627 2.708 10.5097 2.79329 10.4031 2.89991ZM8.00432 2.79329C7.94035 2.87858 7.86572 2.92123 7.75911 2.89991L7.73779 2.85726C7.86572 2.77197 7.89771 2.63338 7.91903 2.50544C8.0363 2.56941 8.0363 2.708 8.00432 2.79329ZM10.6909 2.44147C10.6483 2.68668 10.7336 3.05982 10.4031 3.15577C10.0086 2.93189 10.0299 3.81677 9.78474 3.21974C9.69945 2.93189 9.87002 2.62272 10.1366 2.4628C10.2752 2.48412 10.4031 2.30288 10.5097 2.44147H10.6909ZM4.57141 2.52676V2.56941C4.44348 2.63338 4.28356 2.50544 4.24092 2.38817V2.30288C4.36885 2.30288 4.50745 2.39883 4.57141 2.52676ZM4.03836 2.38817C3.83579 2.20693 3.83579 2.56941 3.64389 2.40949V2.24957C3.79315 2.21759 3.91042 2.28156 4.03836 2.38817ZM3.5053 2.72933C3.56926 2.93189 3.19612 3.0385 3.37736 3.26239C3.15348 3.40098 3.5053 3.71016 3.33472 3.92338L3.29207 3.96602C3.22811 3.83809 3.11083 3.82743 3.00422 3.78478C2.96158 3.91272 3.13215 4.02999 3.18546 4.15793C3.22811 4.22189 3.27075 4.28586 3.27075 4.36049C3.11083 4.36049 2.96158 4.20057 2.73769 4.25388C2.67372 4.18991 2.63108 4.12594 2.63108 4.02999C2.69505 4.05131 2.73769 4.07264 2.791 4.05131C2.85496 4.00867 2.95091 3.92338 2.85496 3.87007C2.791 3.74214 2.6524 3.71016 2.50314 3.71016V3.62487C2.74835 3.73148 2.91893 3.49693 3.01488 3.33701C3.07885 3.02784 2.97224 2.76131 2.68438 2.62272C2.66306 2.62272 2.62042 2.60139 2.5991 2.64404C2.80166 2.78263 2.8443 3.01718 2.82298 3.28371C2.71637 3.369 2.66306 3.46495 2.51381 3.46495C2.47116 3.32635 2.73769 3.24106 2.6524 3.04916C2.42852 2.76131 1.83149 2.92123 1.91678 2.40949C2.04471 2.16428 2.47116 2.5161 2.33257 2.14296C2.37521 2.18561 2.43918 2.18561 2.4605 2.24957C2.62042 2.14296 2.72703 1.98304 2.92959 1.9404C3.37736 1.95106 3.39868 2.44147 3.5053 2.72933ZM11.9809 2.07899C11.9383 2.21759 12.0449 2.3242 12.1409 2.38817C12.2261 2.38817 12.2688 2.36685 12.3008 2.30288V2.28156C12.3647 2.26023 12.3647 2.3242 12.4074 2.34552C12.3008 2.47346 12.3008 2.67602 12.0982 2.71867C11.9916 2.71867 11.853 2.55875 11.7677 2.73999C11.6398 3.04916 12.0769 3.4223 11.6078 3.53958C11.5225 3.5609 11.4692 3.66751 11.3839 3.74214C11.3626 3.87007 11.4052 3.96602 11.4905 4.05131C11.3306 4.1366 11.3093 3.92338 11.224 3.87007C11.0961 3.37966 11.9063 3.51825 11.7571 2.96387L11.6931 2.89991C11.6078 3.32635 10.8722 3.12379 11.0961 3.6995H10.7869C10.7442 3.34768 11.0321 3.12379 11.1174 2.83594L11.0534 2.77197C11.0108 2.81462 10.9681 2.89991 10.8935 2.89991L10.8295 2.50544C10.9148 2.26023 11.0108 1.90842 11.3199 1.84445C11.5971 1.82313 11.8637 1.82313 11.9809 2.07899ZM6.21324 1.02354C6.21324 1.04486 6.19192 1.06619 6.17059 1.0875C6.0853 0.959574 5.96803 0.735689 5.77613 0.778334L5.71216 0.863624C5.77613 0.948913 5.95737 0.948913 5.93605 1.0875C5.79745 1.00222 5.66952 0.778334 5.46695 0.927591C5.40299 0.948913 5.36034 1.01288 5.30704 1.05552C5.41365 1.09817 5.44563 1.25808 5.39233 1.3647C5.45629 1.42866 5.53092 1.32205 5.61621 1.27941L5.65886 1.05552C5.72282 1.14081 5.78679 1.27941 5.72282 1.38602C5.47762 1.63122 5.25373 1.91908 5.34968 2.24957C4.83794 2.69734 6.032 3.51825 4.92323 3.60354L4.7953 3.53958C5.06183 3.29437 4.68869 3.04916 4.7953 2.73999C4.83794 2.71867 4.9339 2.78263 4.97654 2.8466C4.97654 2.95321 4.97654 3.04916 5.08315 3.11313C5.18976 3.13445 5.24307 3.07049 5.22175 2.97453C5.1791 2.77197 4.91257 2.64404 4.80596 2.4628C4.80596 2.21759 4.80596 1.9937 4.96588 1.82313C5.1258 1.82313 5.14712 2.35619 5.27505 1.92974C5.29638 1.68453 5.07249 1.50329 5.21109 1.2261C5.16844 1.16213 5.10447 1.20478 5.07249 1.20478C5.00852 1.06619 5.02985 0.852962 5.21109 0.788995C5.39233 0.682383 5.58423 0.874285 5.7015 0.629077C5.92539 0.639739 6.12795 0.820979 6.21324 1.02354ZM6.4158 0.597094C6.45844 0.725028 6.4158 0.863624 6.43712 1.02354C6.30919 0.895607 6.10663 0.714367 6.23456 0.511804C6.31985 0.511804 6.36249 0.533127 6.4158 0.597094ZM8.87853 0.597094C8.9425 0.884946 8.26019 0.842301 8.65465 1.15147C8.78258 1.13015 8.83589 1.31139 8.9425 1.25808C8.92118 1.13015 8.76126 0.991558 8.92118 0.884946H8.9425C9.00647 1.19412 9.43292 1.50329 9.02779 1.76982C9.23035 1.85511 9.35829 2.10032 9.47556 2.28156C9.56085 2.48412 9.273 2.67602 9.49688 2.83594V3.6995C9.36895 3.74214 9.47556 3.85941 9.41159 3.92338L9.25168 3.76346C9.16639 3.90206 9.31564 4.02999 9.273 4.18991C9.18771 4.25388 9.02779 4.10462 9.02779 3.98735C8.9425 3.82743 8.8892 3.63553 8.9425 3.45429C9.00647 3.49693 9.04911 3.43297 9.0811 3.39032C9.05977 3.28371 8.97449 3.2304 9.01713 3.10247C9.24101 2.92123 9.28366 2.63338 9.19837 2.38817L8.91052 1.91908C8.97449 1.67387 8.93184 1.38602 8.70796 1.25808C8.56936 1.19412 8.37746 1.15147 8.31349 0.991558C8.33481 0.927591 8.33481 0.863624 8.4201 0.83164C8.48407 0.810318 8.60134 0.874285 8.64399 0.767673C8.64399 0.682383 8.64399 0.639739 8.58002 0.607755C8.44143 0.607755 8.29217 0.629077 8.16424 0.714367C8.18556 0.575771 8.34548 0.554449 8.43076 0.46916C8.612 0.447837 8.78258 0.447837 8.87853 0.597094ZM6.83159 0.597094C6.81026 0.725028 6.89555 0.884946 6.76762 0.991558C6.68233 0.83164 6.54373 0.597094 6.63968 0.437176C6.72497 0.426515 6.83159 0.46916 6.83159 0.597094ZM8.05762 0.394531C8.01498 0.597094 7.91903 0.767673 7.85506 0.948913C7.74845 0.842301 7.79109 0.639739 7.81242 0.522465C7.85506 0.426515 7.98299 0.415854 8.05762 0.394531ZM7.56721 0.394531C7.60985 0.597094 7.6525 0.863623 7.52456 1.05552C7.99366 1.19412 8.63333 1.25808 8.78258 1.76982C8.71862 2.10032 9.31564 2.45214 8.82523 2.63338C8.69729 2.67602 8.69729 2.94255 8.5587 2.79329C8.47341 2.708 8.47341 2.54809 8.33481 2.50544L8.72928 2.11098C8.59068 2.06833 8.4201 2.23891 8.28151 2.2709C8.07895 2.31354 8.07895 2.18561 8.01498 2.06833C8.07895 1.96172 8.12159 1.86577 8.28151 1.90842C8.40944 1.99371 8.612 2.26023 8.70796 1.97238C8.48407 1.88709 8.33481 1.57792 8.06828 1.7485C7.90837 1.81246 7.96167 2.03635 7.75911 2.03635C7.6525 1.89775 7.96167 1.76982 8.02564 1.64189C8.29217 1.53527 8.44143 1.8018 8.62267 1.86577C8.7506 1.64189 8.4201 1.57792 8.29217 1.43932C7.96167 1.31139 7.69514 1.62056 7.49258 1.86577C7.29002 2.11098 7.80175 2.44147 7.42861 2.60139L7.01283 2.55875C6.97018 2.33486 7.19407 2.11098 7.07679 1.84445C6.9382 1.64189 6.7463 1.44998 6.50109 1.42866C6.19192 1.42866 5.96803 1.69519 5.81877 1.91908C5.94671 1.96172 6.0853 1.78048 6.21324 1.69519C6.35183 1.53527 6.50109 1.71651 6.63968 1.75916C6.68233 1.84445 6.7463 1.96172 6.70365 2.02569C6.59704 1.91908 6.35183 1.49263 6.14927 1.8018C6.04266 1.98304 5.73348 1.98304 5.81877 2.17495C6.04266 2.19627 6.12795 1.88709 6.37316 1.92974L6.63968 2.21759C6.51175 2.37751 6.2239 2.30288 6.0853 2.28156C6.00001 2.15362 5.86142 2.21759 5.73348 2.21759L5.71216 2.23891C5.85076 2.42015 6.10663 2.39883 6.30919 2.50544C6.04266 2.61205 6.0853 2.89991 5.88274 3.0385C5.94671 3.28371 5.94671 3.55024 6.17059 3.74214C6.2772 3.80611 6.39448 3.74214 6.47977 3.65685V3.61421C6.35183 3.59288 6.21324 3.65685 6.10663 3.52892V3.44363C6.4158 3.66751 6.81026 3.50759 7.07679 3.31569L7.09812 3.27305C6.97018 3.2304 6.78894 3.43297 6.67167 3.31569C6.56506 3.47561 6.42646 3.35834 6.2772 3.35834C6.21324 3.21974 5.96803 3.21974 6.05332 2.9852C6.23456 3.20908 6.54373 3.33701 6.83159 3.27305L6.91688 3.20908C6.62902 3.18776 6.46911 3.08115 6.23456 2.87858C6.25588 2.83594 6.21324 2.77197 6.2772 2.75065C6.34117 2.91057 6.56506 3.16644 6.81026 3.10247C6.85291 3.10247 6.91688 3.14511 6.9382 3.08115C6.83159 2.94255 6.49043 2.99586 6.49043 2.68668C6.44778 2.60139 6.53307 2.55875 6.5544 2.50544C6.51175 2.68668 6.59704 2.83594 6.75696 2.92123C7.00217 2.96387 7.35398 3.18776 7.57787 2.92123H7.64184C7.62051 2.94255 7.66316 2.96387 7.66316 2.9852C7.64184 3.02784 7.57787 3.02784 7.53522 3.09181C7.69514 3.27305 7.96167 3.27305 8.19622 3.21974C8.30283 3.13445 8.4201 3.09181 8.50539 2.99586C8.54804 3.13445 8.4201 3.26239 8.30283 3.32635C7.97233 3.45429 7.7058 3.24106 7.43927 3.12379L7.37531 3.20908C7.50324 3.39032 7.74845 3.47561 7.97233 3.53958C8.26019 3.51825 8.54804 3.45429 8.70796 3.20908C8.70796 3.16644 8.68663 3.12379 8.72928 3.10247C8.79324 3.10247 8.81457 3.16644 8.85721 3.20908C8.92118 3.34768 8.77192 3.41164 8.77192 3.53958C8.70796 3.74214 8.93184 3.96602 8.66531 4.09396C8.52672 4.02999 8.50539 4.22189 8.35614 4.15793C8.39878 4.05131 8.58002 3.95536 8.62267 3.82743C8.62267 3.62487 8.76126 3.43297 8.76126 3.27305C8.60134 3.43297 8.40944 3.66751 8.16424 3.6995C7.74845 3.78478 7.52456 3.45429 7.23671 3.27305C7.01283 3.60354 6.59704 3.87007 6.17059 3.78478C6.032 3.6995 5.96803 3.47561 5.77613 3.39032C5.90406 3.57156 5.63753 4.02999 6.00001 4.12594C6.13861 4.06198 6.26654 4.18991 6.30919 4.28586V4.54173C6.0853 4.47776 6.0853 4.12594 5.77613 4.21123C5.5096 3.96602 5.90406 3.69949 5.57357 3.45429C5.57357 3.32635 5.79745 3.25173 5.81877 3.10247C5.86142 2.67602 4.99786 2.61205 5.55224 2.17495C5.65886 2.01503 5.55224 1.75916 5.68018 1.59924C6.10663 1.24742 6.62902 1.0875 7.20473 1.0875L7.49258 1.04486C7.47126 0.884946 7.23671 0.426515 7.56721 0.394531Z" fill="white"/>
</svg>
